<?xml version="1.0" encoding="utf-8"?>
<!-- Uploaded to: SVG Repo, www.svgrepo.com, Generator: SVG Repo Mixer Tools -->
<svg width="800px" height="800px" viewBox="0 0 1024 1024" class="icon"  version="1.1" xmlns="http://www.w3.org/2000/svg"><path d="M993.763 493.538v35c0 13.331-6.04 26.664-18.135 37.137-140.149 121.422-280.35 242.795-420.49 364.219-11.813 10.237-25.813 15.501-42.454 15.501v-35c16.644 0 30.641-5.264 42.454-15.501C695.28 773.47 835.474 652.092 975.628 530.677c12.095-10.475 18.135-23.803 18.135-37.139z" fill="#924A91" /><path d="M30.239 528.367v-3.5-1.75-3.5-3.5-1.75-3.5-3.5-1.75-3.5-3.5-1.75-3.5c0 14.707 6.701 29.313 19.037 40.019 138.449 120.064 277.049 239.996 415.562 360.02 13.002 11.26 28.74 16.466 47.853 16.994v35c-19.108-0.528-34.851-5.734-47.853-16.994C326.325 808.382 187.725 688.45 49.276 568.386c-12.337-10.705-19.037-25.312-19.037-40.019z" fill="#924A91" /><path d="M510.786 76.601c16.263 0 32.546 5.362 44.946 16.097 139.949 121.188 279.9 242.376 419.818 363.586 24.241 20.995 24.295 53.413 0.079 74.396C835.48 652.101 695.28 773.478 555.141 894.898c-11.814 10.238-25.813 15.502-42.451 15.502-19.109-0.528-34.853-5.734-47.854-16.994C326.324 773.382 187.724 653.45 49.275 533.386c-19.581-16.987-24.96-43.81-11.895-65.251 3.919-6.438 8.669-11.829 14.465-16.849C189.954 331.734 328.024 212.152 466.107 92.567c12.296-10.639 28.478-15.966 44.679-15.966z" fill="#A7529B" /><path d="M399.822 322.543l32.304 0.002 32.301 0.01c8.246 0.008 10.313 1.815 10.322 8.965 0.011 10.341 0.014 20.68 0.014 31.021l-0.001 31.02 0.001 31.02c0 10.34-0.001 20.68-0.014 31.021 0 7.403-2.005 9.141-10.552 9.141a190093.068 190093.068 0 0 1-143.278 0c-8.236 0-10.341-1.814-10.352-8.947-0.007-20.746-0.011-41.493-0.011-62.238 0-20.745 0.004-41.491 0.02-62.236 0-6.889 2.158-8.756 10.122-8.756a165725.577 165725.577 0 0 1 78.184-0.02c0.31-0.003 0.627-0.003 0.94-0.003z" fill="#E2BBD7" /><path d="M474.748 455.602v16.801c0 7.402-2.005 9.14-10.553 9.14a171064.87 171064.87 0 0 1-143.277 0c-8.236 0-10.341-1.814-10.352-8.947-0.005-20.746-0.011-41.493-0.011-62.237v-16.8c0 20.745 0.004 41.492 0.011 62.238 0.009 7.131 2.115 8.947 10.352 8.947a190074.2 190074.2 0 0 0 143.277 0c8.548-0.003 10.553-1.739 10.553-9.142z" fill="#7B3684" /><path d="M474.748 455.602v16.801c0 0.643-0.015 1.242-0.046 1.803v-16.8c0.031-0.562 0.046-1.162 0.046-1.804M474.702 457.405v16.8c-0.138 2.29-0.576 3.909-1.521 5.034v-16.8c0.945-1.126 1.382-2.743 1.521-5.034M473.18 462.439v16.8a4.692 4.692 0 0 1-1.067 0.93v-16.8a4.738 4.738 0 0 0 1.067-0.93M472.112 463.369v16.8a6.158 6.158 0 0 1-1.202 0.585v-16.8a6.332 6.332 0 0 0 1.202-0.585M470.909 463.954v16.8c-0.681 0.25-1.472 0.431-2.386 0.555v-16.8c0.915-0.125 1.706-0.305 2.386-0.555" fill="#7B3684" /><path d="M468.523 464.509v16.8c-1.214 0.166-2.645 0.232-4.329 0.232a171068.213 171068.213 0 0 1-143.277 0c-8.236 0-10.341-1.814-10.352-8.947-0.006-20.746-0.011-41.493-0.011-62.237v-16.8c0 20.745 0.004 41.492 0.011 62.238 0.009 7.131 2.115 8.947 10.352 8.947a190074.2 190074.2 0 0 0 143.277 0c1.687-0.001 3.119-0.068 4.329-0.233" fill="#7B3684" /><path d="M501.663 327.426a6358.075 6358.075 0 0 0 0 132.252c0.16 15.472-14.629 28.374-32.453 28.374a9669.936 9669.936 0 0 0-153.009-0.002c-18.303 0.001-32.978-13.588-32.487-28.171 0.736-22.085 0.191-44.207 0.191-66.318 0-22.103 0.544-44.224-0.191-66.318-0.492-14.736 14.948-27.962 31.946-27.962a7849.314 7849.314 0 0 0 153.464 0c17.209 0 32.689 12.602 32.539 28.145z m-26.901 97.156l-0.001-31.021 0.001-31.02c0-10.34-0.001-20.681-0.014-31.021-0.009-7.148-2.075-8.956-10.321-8.965-10.767-0.004-21.537-0.007-32.302-0.008l-32.304-0.003h-0.94a165732.729 165732.729 0 0 0-78.185 0.02c-7.962 0-10.12 1.868-10.12 8.755-0.016 20.746-0.021 41.492-0.021 62.237s0.004 41.492 0.011 62.238c0.01 7.131 2.115 8.947 10.353 8.947a171063.437 171063.437 0 0 0 143.277 0c8.548 0 10.554-1.736 10.554-9.141 0.009-10.339 0.012-20.677 0.012-31.018" fill="#A95EA2" /><path d="M283.7 477.392v-16.8c0 14.311 14.496 27.46 32.5 27.458a9669.936 9669.936 0 0 1 153.009 0.002c17.824 0 32.613-12.9 32.453-28.374v16.8c0.16 15.472-14.629 28.373-32.453 28.373a9797.851 9797.851 0 0 0-76.65-0.303c-25.452 0-50.906 0.102-76.359 0.302-18.005 0.002-32.5-13.149-32.5-27.458z" fill="#7B3684" /><path d="M501.663 459.678v16.8c0.005 0.583-0.009 1.162-0.045 1.738v-16.8c0.035-0.576 0.05-1.155 0.045-1.738M501.618 461.416v16.8c-0.347 5.57-2.625 10.746-6.253 15.025v-16.8c3.629-4.279 5.906-9.455 6.253-15.025M495.364 476.441v16.8c-1.981 2.335-4.364 4.402-7.057 6.125v-16.8c2.693-1.721 5.076-3.789 7.057-6.125" fill="#7B3684" /><path d="M488.308 482.566v16.8a34.325 34.325 0 0 1-6.646 3.287v-16.801a34.293 34.293 0 0 0 6.646-3.286" fill="#7B3684" /><path d="M481.664 485.853v16.801a35.66 35.66 0 0 1-7.507 1.862v-16.8a35.769 35.769 0 0 0 7.507-1.863M474.156 487.717v16.8a36.477 36.477 0 0 1-4.946 0.335 9797.851 9797.851 0 0 0-76.65-0.303c-25.452 0-50.906 0.102-76.359 0.302-18.004 0.001-32.5-13.148-32.5-27.458v-16.8c0 14.311 14.496 27.46 32.5 27.458a9669.936 9669.936 0 0 1 153.009 0.002 36.791 36.791 0 0 0 4.946-0.336" fill="#7B3684" /><path d="M713.35 354.705v16.8c-0.001-7.803-0.005-15.607-0.019-23.412-0.01-6.87-2.167-8.729-10.14-8.729a137021.02 137021.02 0 0 0-78.139-0.019h-0.987c-21.534 0-43.071 0.005-64.604 0.012-8.236 0.009-10.302 1.816-10.312 8.982-0.005 20.68-0.01 41.36-0.01 62.041v-16.8c0-20.681 0.005-41.36 0.01-62.041 0.01-7.166 2.074-8.974 10.312-8.982 21.534-0.007 43.071-0.012 64.604-0.012h0.987a156928.517 156928.517 0 0 1 78.139 0.019c7.973 0 10.13 1.859 10.14 8.729 0.014 7.805 0.018 15.609 0.019 23.412z" fill="#7B3684" /><path d="M713.35 354.705v16.8c-0.001-7.803-0.005-15.607-0.019-23.412-0.01-6.87-2.167-8.729-10.14-8.729a137021.02 137021.02 0 0 0-78.139-0.019h-0.987c-21.534 0-43.071 0.005-64.604 0.012-1.562 0-2.903 0.068-4.05 0.223v-16.8c1.146-0.155 2.486-0.223 4.05-0.223 21.534-0.007 43.071-0.012 64.604-0.012h0.987a156928.517 156928.517 0 0 1 78.139 0.019c7.973 0 10.13 1.859 10.14 8.729 0.014 7.805 0.018 15.609 0.019 23.412" fill="#7B3684" /><path d="M555.412 322.778v16.8c-0.914 0.125-1.706 0.305-2.389 0.554v-16.8c0.683-0.249 1.475-0.429 2.389-0.554M553.023 323.333v16.8a6.313 6.313 0 0 0-1.22 0.593v-16.8a6.314 6.314 0 0 1 1.22-0.593" fill="#7B3684" /><path d="M551.805 323.926v16.8c-0.417 0.266-0.776 0.58-1.082 0.942v-16.8a4.706 4.706 0 0 1 1.082-0.942M550.722 324.868v16.8c-0.945 1.125-1.391 2.741-1.525 5.013v-16.8c0.134-2.272 0.578-3.887 1.525-5.013M549.195 329.882v16.8a28.627 28.627 0 0 0-0.046 1.656c-0.005 20.68-0.01 41.36-0.01 62.041v-16.8c0-20.681 0.005-41.36 0.01-62.041 0.001-0.586 0.015-1.138 0.046-1.656" fill="#7B3684" /><path d="M713.347 439.97v16.8c-0.001 5.139-0.001 10.277-0.004 15.414-0.012 7.656-1.966 9.357-10.775 9.357v-16.8c8.811 0 10.765-1.701 10.775-9.357 0.003-5.138 0.003-10.276 0.004-15.414z" fill="#7B3684" /><path d="M713.347 439.97v16.8c-0.001 5.139-0.001 10.277-0.004 15.414a34.72 34.72 0 0 1-0.052 1.897v-16.8c0.033-0.588 0.051-1.221 0.052-1.897 0.003-5.138 0.003-10.276 0.004-15.414" fill="#7B3684" /><path d="M713.291 457.282v16.8c-0.143 2.357-0.58 4.01-1.542 5.149V462.43c0.962-1.138 1.401-2.791 1.542-5.148" fill="#7B3684" /><path d="M711.75 462.431v16.801a4.617 4.617 0 0 1-1.064 0.928v-16.8a4.693 4.693 0 0 0 1.064-0.929M710.686 463.357v16.8a6.165 6.165 0 0 1-1.2 0.583v-16.8a6.052 6.052 0 0 0 1.2-0.583M709.483 463.943v16.8c-0.682 0.253-1.478 0.434-2.399 0.559v-16.8c0.923-0.126 1.717-0.308 2.399-0.559M707.084 464.502v16.8c-1.255 0.172-2.748 0.239-4.518 0.239v-16.8c1.77 0 3.261-0.068 4.518-0.239" fill="#7B3684" /><path d="M624.067 322.543h0.987a137071.706 137071.706 0 0 1 78.139 0.02c7.972 0 10.129 1.859 10.139 8.729 0.014 7.806 0.018 15.609 0.02 23.414 0.001 13.007-0.007 26.013-0.007 39.021 0 15.413 0.005 30.829 0.004 46.243l-0.004 15.414c-0.013 7.656-1.967 9.357-10.775 9.357-27.486 0.005-54.979 0.011-82.466 0.011-20.125 0-40.245-0.002-60.367-0.011-8.569 0-10.575-1.736-10.585-9.122-0.005-20.68-0.009-41.36-0.009-62.04 0-20.681 0.005-41.36 0.009-62.041 0.01-7.168 2.074-8.974 10.312-8.984 21.531-0.007 43.068-0.011 64.603-0.011z" fill="#E2BBD7" /><path d="M702.566 464.741v16.8c-27.485 0.005-54.979 0.011-82.465 0.011v-16.8c27.489 0 54.98-0.005 82.465-0.011z" fill="#7B3684" /><path d="M702.566 464.741v16.8c-27.485 0.005-54.979 0.011-82.465 0.011v-16.8c27.489 0 54.98-0.005 82.465-0.011" fill="#7B3684" /><path d="M740.205 327.251c-0.574 44.207-0.574 88.431 0.012 132.646 0.181 14.547-14.208 28.154-32.252 28.154a9695.726 9695.726 0 0 0-152.987-0.002c-18.104 0.001-32.892-12.889-32.73-28.38 0.465-43.954 0.503-87.915-0.021-131.869-0.188-15.678 14.919-28.532 32.053-28.533 0.322 0 0.646 0.004 0.971 0.014 10.189 0.288 20.389 0.374 30.588 0.374 15.178 0 30.357-0.19 45.536-0.19 15.204 0 30.416 0.164 45.614 0.164 10.327 0 20.646-0.076 30.963-0.329 0.26-0.005 0.519-0.009 0.775-0.009 16.799-0.002 31.678 13.353 31.478 27.96zM713.347 439.97c0.002-15.414-0.004-30.83-0.004-46.243 0-13.008 0.009-26.014 0.007-39.021-0.001-7.803-0.005-15.607-0.019-23.412-0.01-6.87-2.167-8.729-10.14-8.729a137018.491 137018.491 0 0 0-78.139-0.02h-0.987c-21.534 0-43.071 0.006-64.604 0.013-8.236 0.009-10.302 1.816-10.312 8.982-0.005 20.679-0.01 41.36-0.01 62.041 0 20.68 0.005 41.36 0.01 62.041 0.01 7.384 2.014 9.122 10.585 9.122 20.119 0.007 40.244 0.01 60.367 0.01 27.487 0 54.979-0.005 82.465-0.01 8.811 0 10.765-1.702 10.775-9.358 0.005-5.14 0.005-10.278 0.006-15.416" fill="#A95EA2" /><path d="M740.217 459.897v16.8c0.18 14.547-14.208 28.153-32.252 28.153a9792.552 9792.552 0 0 0-76.633-0.303c-25.453 0-50.903 0.102-76.354 0.302-18.103 0.001-32.891-12.888-32.729-28.38v-16.8c-0.16 15.491 14.628 28.381 32.729 28.38a9668.099 9668.099 0 0 1 152.987 0.002c18.042 0.001 32.431-13.607 32.252-28.154z" fill="#7B3684" /><path d="M740.217 459.897v16.8c0.007 0.548-0.009 1.096-0.04 1.641v-16.8a23.62 23.62 0 0 0 0.04-1.641M740.176 461.538v16.8c-0.334 5.352-2.608 10.505-6.269 14.826v-16.8c3.659-4.32 5.935-9.475 6.269-14.826" fill="#7B3684" /><path d="M733.908 476.365v16.8c-2.011 2.375-4.44 4.497-7.197 6.26v-16.8a32.074 32.074 0 0 0 7.197-6.26M726.711 482.624v16.8a34.127 34.127 0 0 1-6.622 3.281v-16.8a34.014 34.014 0 0 0 6.622-3.281M720.089 485.905v16.8a34.833 34.833 0 0 1-7.332 1.821v-16.801a34.74 34.74 0 0 0 7.332-1.82M712.755 487.726v16.801a35.469 35.469 0 0 1-4.792 0.323 9792.49 9792.49 0 0 0-76.632-0.303c-25.453 0-50.903 0.102-76.354 0.302-18.104 0.001-32.891-12.889-32.729-28.38v-16.8c-0.16 15.492 14.626 28.381 32.729 28.38a9668.099 9668.099 0 0 1 152.986 0.002 35.294 35.294 0 0 0 4.792-0.325" fill="#7B3684" /><path d="M474.748 537.913v16.8c0-6.878-2.146-8.729-10.12-8.729l-43.101-0.013c-13.367-0.002-26.727-0.002-40.094-0.002h-1.002c-19.843 0-39.691 0.002-59.535 0.006-8.225 0.009-10.321 1.822-10.332 8.963-0.005 20.686-0.007 41.369-0.007 62.05v-16.8c0-20.682 0.001-41.364 0.007-62.05 0.011-7.142 2.107-8.955 10.332-8.963 19.844-0.004 39.692-0.006 59.535-0.006h1.002c13.367 0 26.727 0 40.094 0.002l43.101 0.012c7.974 0.001 10.12 1.851 10.12 8.73z" fill="#7B3684" /><path d="M474.748 537.913v16.8c0-6.878-2.146-8.729-10.12-8.729l-43.101-0.013c-13.367-0.002-26.727-0.002-40.094-0.002h-1.002c-19.843 0-39.691 0.002-59.535 0.006-1.559 0-2.897 0.067-4.043 0.226V529.4c1.146-0.157 2.484-0.225 4.043-0.225 19.844-0.004 39.692-0.006 59.535-0.006h1.002c13.367 0 26.727 0 40.094 0.002 14.365 0.004 28.733 0.007 43.101 0.013 7.974 0 10.12 1.85 10.12 8.729" fill="#7B3684" /><path d="M316.854 529.399v16.8c-0.919 0.125-1.714 0.307-2.398 0.556v-16.801c0.686-0.25 1.48-0.433 2.398-0.555M314.455 529.954v16.801a6.144 6.144 0 0 0-1.225 0.597v-16.8a6.2 6.2 0 0 1 1.225-0.598" fill="#7B3684" /><path d="M313.23 530.552v16.8a4.782 4.782 0 0 0-1.09 0.949v-16.8c0.307-0.365 0.669-0.68 1.09-0.949" fill="#7B3684" /><path d="M312.141 531.501v16.8c-0.947 1.128-1.395 2.741-1.528 5.01V536.51c0.133-2.268 0.58-3.883 1.528-5.009M310.612 536.51v16.802c-0.03 0.51-0.045 1.053-0.045 1.629-0.005 20.685-0.008 41.366-0.008 62.049v-16.8c0-20.683 0.001-41.364 0.008-62.05 0-0.577 0.015-1.119 0.045-1.63" fill="#7B3684" /><path d="M433.994 671.375v16.8c-13.733 0-27.462-0.005-41.195-0.005l-35.818 0.002c-11.941 0-23.881-0.002-35.82-0.011-8.568 0-10.593-1.737-10.593-9.13v-16.8c0 7.393 2.025 9.13 10.593 9.13 11.939 0.008 23.879 0.011 35.82 0.011l35.818-0.003c13.733 0 27.463 0.006 41.195 0.006z" fill="#7B3684" /><path d="M433.994 671.375v16.8c-13.733 0-27.462-0.005-41.195-0.005l-35.818 0.002c-11.941 0-23.881-0.002-35.82-0.011-8.568 0-10.593-1.737-10.593-9.13v-16.8c0 7.393 2.025 9.13 10.593 9.13 11.939 0.008 23.879 0.011 35.82 0.011l35.818-0.003c13.733 0 27.463 0.006 41.195 0.006" fill="#7B3684" /><path d="M501.622 533.566c-0.332 44.477-0.353 88.951 0 133.421 0.119 14.969-15.031 27.629-31.433 27.629-0.243 0-0.488-0.002-0.731-0.009-10.236-0.233-20.476-0.306-30.719-0.306-15.288 0-30.58 0.154-45.869 0.154-15.287 0-30.588-0.183-45.878-0.183-10.239 0-20.473 0.082-30.7 0.356-0.293 0.01-0.588 0.014-0.881 0.014-17.139 0-31.916-13.45-31.719-28.068 0.595-44.215 0.565-88.439 0.01-132.646-0.181-14.484 14.216-28.04 31.938-28.04 25.664 0.171 51.1 0.251 76.531 0.251 25.776 0 51.546-0.083 77.316-0.239 17.548 0.002 32.236 12.815 32.135 27.666z m-26.874 129.213a118122.22 118122.22 0 0 0 0-124.87c0-6.878-2.146-8.729-10.12-8.729-14.367-0.006-28.734-0.009-43.101-0.013l-40.094-0.001h-1.002c-19.843 0-39.691 0.001-59.535 0.005-8.225 0.009-10.321 1.823-10.332 8.964a256686.792 256686.792 0 0 0 0 124.09c0 7.394 2.025 9.13 10.594 9.13 11.939 0.01 23.879 0.012 35.818 0.012l35.82-0.002c13.73 0 27.462 0.005 41.194 0.005h0.771l13.903-0.001c5.407-0.003 10.814-0.006 16.22-0.014 7.669-0.011 9.855-1.922 9.864-8.576" fill="#A95EA2" /><path d="M380.433 529.171H421.529l43.101 0.014c7.973 0 10.12 1.85 10.12 8.729a118112.588 118112.588 0 0 1 0 124.87c-0.009 6.651-2.195 8.563-9.858 8.581-5.404 0.007-10.813 0.01-16.221 0.012l-13.903 0.002h-0.771c-13.733 0-27.462-0.005-41.195-0.005l-35.818 0.003c-11.941 0-23.881-0.003-35.82-0.012-8.568 0-10.593-1.737-10.593-9.13a213842.696 213842.696 0 0 1 0-124.091c0.009-7.143 2.106-8.955 10.332-8.965 19.839-0.008 39.686-0.008 59.53-0.008z" fill="#E2BBD7" /><path d="M501.622 666.987v16.801c0.119 14.968-15.031 27.628-31.433 27.628-0.243 0-0.488-0.002-0.731-0.009-10.236-0.233-20.476-0.305-30.719-0.305-15.288 0-30.58 0.153-45.869 0.153-15.287 0-30.588-0.183-45.878-0.183-10.239 0-20.473 0.082-30.7 0.357-0.293 0.01-0.588 0.013-0.881 0.013-17.139 0-31.916-13.45-31.719-28.068v-16.8c-0.197 14.616 14.581 28.068 31.719 28.068 0.293 0 0.587-0.004 0.881-0.014 10.228-0.274 20.461-0.356 30.7-0.356 15.291 0 30.592 0.183 45.878 0.183 15.29 0 30.582-0.154 45.869-0.154 10.242 0 20.482 0.071 30.719 0.306 0.244 0.007 0.488 0.009 0.731 0.009 16.403 0 31.553-12.66 31.433-27.629z" fill="#7B3684" /><path d="M501.622 666.987v16.801c0.003 0.521-0.011 1.041-0.043 1.559v-16.801a21.83 21.83 0 0 0 0.043-1.559M501.578 668.546v16.801c-0.334 5.336-2.592 10.324-6.116 14.48v-16.8c3.524-4.156 5.782-9.144 6.116-14.481M495.462 683.027v16.8c-2.021 2.385-4.459 4.494-7.188 6.239v-16.802c2.73-1.743 5.168-3.852 7.188-6.237M488.274 689.266v16.802a34.467 34.467 0 0 1-6.628 3.284v-16.8a34.417 34.417 0 0 0 6.628-3.286M481.646 692.552v16.8a33.804 33.804 0 0 1-7.084 1.77v-16.8a33.99 33.99 0 0 0 7.084-1.77" fill="#7B3684" /><path d="M474.563 694.319v16.8a32.778 32.778 0 0 1-5.104 0.288c-10.236-0.233-20.476-0.306-30.719-0.306-15.288 0-30.58 0.154-45.869 0.154-15.287 0-30.588-0.183-45.878-0.183-10.239 0-20.473 0.082-30.7 0.357-0.293 0.01-0.588 0.013-0.881 0.013-17.139 0-31.916-13.45-31.719-28.068v-16.8c-0.197 14.616 14.581 28.067 31.719 28.067 0.293 0 0.587-0.003 0.881-0.013 10.228-0.275 20.461-0.356 30.7-0.356 15.291 0 30.592 0.183 45.878 0.183 15.29 0 30.582-0.154 45.869-0.154 10.242 0 20.482 0.071 30.719 0.306a32.48 32.48 0 0 0 5.104-0.288" fill="#7B3684" /><path d="M522.168 617.046v-16.8c0 1.501 0.311 3.047 0.926 4.578 1.702 4.233 6.733 6.914 13.145 6.914 8.463 0.003 16.922 0.004 25.385 0.004 16.923 0 33.852-0.004 50.771-0.004h5.614v16.8h-5.614c-16.92 0-33.849 0.004-50.771 0.004-8.463 0-16.922-0.001-25.385-0.004-6.41 0-11.441-2.68-13.145-6.914-0.617-1.531-0.926-3.077-0.926-4.578z" fill="#7B3684" /><path d="M618.006 611.738v16.8h-5.614c-16.919 0-33.848 0.004-50.771 0.004-8.463 0-16.922-0.001-25.384-0.004-6.412 0-11.443-2.68-13.146-6.914-0.615-1.531-0.926-3.076-0.926-4.578v-16.8c0 1.501 0.311 3.047 0.926 4.578 1.702 4.233 6.733 6.914 13.146 6.914 8.462 0.003 16.921 0.004 25.384 0.004 16.923 0 33.852-0.004 50.771-0.004h5.614" fill="#7B3684" /><path d="M740.31 600.309v16.801c0 4.008-2.096 7.638-6.265 9.85-2.228 1.179-5.34 1.519-8.063 1.528-12.616 0.052-25.229 0.064-37.849 0.064-12.616 0-25.231-0.014-37.854-0.014h-5.797v-16.8h5.797c12.621 0 25.236 0.014 37.854 0.014 12.618 0 25.231-0.014 37.849-0.065 2.721-0.01 5.835-0.351 8.063-1.527 4.169-2.215 6.265-5.845 6.265-9.851z" fill="#7B3684" /><path d="M740.31 600.309v16.801c0 0.229-0.007 0.458-0.021 0.686v-16.801c0.014-0.228 0.021-0.457 0.021-0.686M740.287 600.993v16.801a10.44 10.44 0 0 1-2.477 6.188v-16.801a10.417 10.417 0 0 0 2.477-6.188" fill="#7B3684" /><path d="M737.813 607.182v16.801a12.22 12.22 0 0 1-2.767 2.394v-16.8a12.248 12.248 0 0 0 2.767-2.395" fill="#7B3684" /><path d="M735.046 609.575v16.8c-0.317 0.204-0.651 0.398-1.001 0.583-0.37 0.195-0.767 0.37-1.18 0.521v-16.8a9.34 9.34 0 0 0 1.18-0.521c0.35-0.184 0.684-0.379 1.001-0.583" fill="#7B3684" /><path d="M732.866 610.68v16.802c-1.009 0.368-2.127 0.614-3.272 0.771v-16.801c1.145-0.155 2.263-0.403 3.272-0.772" fill="#7B3684" /><path d="M729.594 611.452v16.801a27.645 27.645 0 0 1-3.608 0.233c-12.617 0.052-25.23 0.064-37.848 0.064-12.618 0-25.233-0.014-37.854-0.014h-5.797v-16.8h5.797c12.62 0 25.235 0.014 37.854 0.014 12.616 0 25.229-0.014 37.848-0.064a27.326 27.326 0 0 0 3.608-0.234" fill="#7B3684" /><path d="M617.992 663.376v-16.801c0 12.192 0.021 24.383 0.115 36.57 0.01 2.298 0.796 4.968 2.297 6.8 2.604 3.172 6.738 4.784 11.002 4.784 1.676 0 3.374-0.25 5.005-0.75 5.049-1.547 8.075-5.734 8.075-11.35v16.8c0 5.615-3.024 9.804-8.075 11.351-1.631 0.5-3.329 0.75-5.005 0.75-4.266 0-8.396-1.613-11.002-4.785-1.5-1.833-2.287-4.505-2.297-6.799a4741.882 4741.882 0 0 1-0.115-36.57z" fill="#7B3684" /><path d="M644.486 682.631v16.8c0 0.309-0.01 0.611-0.026 0.909v-16.8c0.019-0.299 0.026-0.602 0.026-0.909M644.46 683.54v16.8c-0.167 2.758-1.093 5.136-2.649 6.974v-16.801c1.556-1.837 2.482-4.215 2.649-6.973" fill="#7B3684" /><path d="M641.813 690.515v16.801a10.627 10.627 0 0 1-2.406 2.096v-16.8c0.914-0.587 1.72-1.29 2.406-2.097M639.405 692.61v16.8c-0.705 0.452-1.479 0.835-2.309 1.141V693.75a11.788 11.788 0 0 0 2.309-1.14M637.095 693.75v16.801c-0.223 0.08-0.448 0.157-0.684 0.229-0.883 0.27-1.788 0.47-2.696 0.593v-16.8a16.995 16.995 0 0 0 2.696-0.593c0.235-0.073 0.461-0.149 0.684-0.23M633.715 694.573v16.8c-0.77 0.106-1.543 0.157-2.309 0.157-4.266 0-8.396-1.613-11.002-4.785-1.5-1.833-2.287-4.505-2.297-6.799-0.096-12.188-0.115-24.378-0.115-36.57v-16.801c0 12.192 0.021 24.383 0.115 36.57 0.01 2.297 0.796 4.968 2.297 6.8 2.604 3.172 6.738 4.784 11.002 4.784 0.767 0 1.541-0.049 2.309-0.156" fill="#7B3684" /><path d="M631.454 505.875c4.854 0 9.092 1.932 11.54 5.735 1.219 1.888 1.422 4.445 1.431 6.695 0.102 21.852 0.061 43.711 0.061 65.561v4.94h81.932c6.371 0 11.702 3.009 13.196 7.41 1.863 5.526-0.012 10.992-5.567 13.941-2.228 1.178-5.34 1.519-8.063 1.527a9008.61 9008.61 0 0 1-37.849 0.065c-12.616 0-25.231-0.014-37.854-0.014h-5.797v4.941c0 21.988 0.021 43.969 0 65.949 0 5.613-3.024 9.803-8.074 11.349a17.099 17.099 0 0 1-5.006 0.751c-4.265 0-8.396-1.612-11.001-4.784-1.5-1.834-2.288-4.506-2.297-6.8-0.174-22.234-0.103-44.479-0.103-66.721v-4.688h-5.615c-16.919 0-33.848 0.004-50.771 0.004-8.463 0-16.922-0.002-25.385-0.004-6.41 0-11.441-2.681-13.145-6.914-2.098-5.221-0.646-10.604 4.525-13.881 2.097-1.325 5.182-2.032 7.821-2.052 14.084-0.081 28.171-0.098 42.253-0.098 11.6 0 23.192 0.013 34.79 0.013h5.522v-4.322c0-22.234-0.01-44.477 0-66.72 0-5.622 3.408-10.031 8.679-11.304a20.828 20.828 0 0 1 4.777-0.579z" fill="#A95EA2" /></svg>