<?xml version="1.0" encoding="utf-8"?>
<!-- Uploaded to: SVG Repo, www.svgrepo.com, Generator: SVG Repo Mixer Tools -->
<svg width="800px" height="800px" viewBox="0 0 1024 1024" class="icon"  version="1.1" xmlns="http://www.w3.org/2000/svg"><path d="M512.5 648.1m-214 0a214 214 0 1 0 428 0 214 214 0 1 0-428 0Z" fill="#AE9AA4" /><path d="M512.5 569.4l-70.4-122h140.8z" fill="#FFFFFF" /><path d="M512.5 437.1c19 0 37.5 2.6 55.1 7.3H457.5c17.5-4.8 36-7.3 55-7.3z m22.5 87.3l-22.5 38.9-22.5-38.9h45z m-54.7-16.9l-33-57.2h66l-33 57.2z m34.3-57.1h63.2l-31.6 54.7-31.6-54.7z m-2.1 408.8c-116.4 0-211-94.7-211-211 0-90.9 57.8-168.6 138.6-198.2l36.7 63.6-6.3 10.9h12.6l29.4 50.9 29.4-50.9h15.4l-7.7-13.3 35.3-61.2c80.8 29.6 138.6 107.3 138.6 198.2 0 116.3-94.6 211-211 211zM666 494.6c-22.5-22.5-49-39.4-77.9-50.1l0.1-0.2h-0.5c-23.7-8.7-49.1-13.3-75.1-13.3-26 0-51.4 4.6-75.1 13.3h-0.5l0.1 0.2c-28.9 10.7-55.5 27.6-77.9 50.1-41 41-63.6 95.5-63.6 153.5s22.6 112.5 63.6 153.5 95.5 63.6 153.5 63.6 112.5-22.6 153.5-63.6 63.6-95.5 63.6-153.5S707 535.6 666 494.6z" fill="#843A5F" /><path d="M370.9 174.6v193.7c0 43.5 35.6 79.1 79.1 79.1h127.8c43.5 0 79.1-35.6 79.1-79.1V174.6h-286z" fill="#E6D8DF" /><path d="M577.8 450.4H450c-45.3 0-82.1-36.8-82.1-82.1V174.6h6v193.7c0 42 34.1 76.1 76.1 76.1h127.8c42 0 76.1-34.1 76.1-76.1V174.6h6v193.7c0 45.2-36.8 82.1-82.1 82.1z" fill="#843A5F" /><path d="M433.3 256.7m-67.9 0a67.9 67.9 0 1 0 135.8 0 67.9 67.9 0 1 0-135.8 0Z" fill="#FFFFFF" /><path d="M433.3 327.6c-39.1 0-70.9-31.8-70.9-70.9 0-39.1 31.8-70.9 70.9-70.9 39.1 0 70.9 31.8 70.9 70.9 0 39.1-31.8 70.9-70.9 70.9z m0-135.8c-35.8 0-64.9 29.1-64.9 64.9s29.1 64.9 64.9 64.9 64.9-29.1 64.9-64.9-29.1-64.9-64.9-64.9z" fill="#843A5F" /><path d="M593.9 256.7m-67.9 0a67.9 67.9 0 1 0 135.8 0 67.9 67.9 0 1 0-135.8 0Z" fill="#FFFFFF" /><path d="M593.9 327.6c-39.1 0-70.9-31.8-70.9-70.9 0-39.1 31.8-70.9 70.9-70.9 39.1 0 70.9 31.8 70.9 70.9 0.1 39.1-31.8 70.9-70.9 70.9z m0-135.8c-35.8 0-64.9 29.1-64.9 64.9s29.1 64.9 64.9 64.9 64.9-29.1 64.9-64.9-29.1-64.9-64.9-64.9z" fill="#843A5F" /><path d="M533.3 271.4h-6c0-7.4-6-13.4-13.4-13.4s-13.4 6-13.4 13.4h-6c0-10.7 8.7-19.4 19.4-19.4s19.4 8.7 19.4 19.4zM513.7 403.4c-23.1 0-46.5-5.6-46.5-16.3h6c0 3.5 14.3 10.3 40.5 10.3s40.5-6.8 40.5-10.3h6c0 10.7-23.4 16.3-46.5 16.3zM667.2 144c-0.8-2.1-2.3-3.6-4.2-4.4-1.3-0.5-2.3-2.3-3.7-4.6-5.6-9.2-14.9-24.6-67.4-19.1-6.8-6.3-44.7-38.8-84.5-27.4-5.8-0.7-45.2-4.6-70.1 16.2-3.7 1.3-28.1 9.2-42.4 0-6.2-4-9.8-10.8-10.5-20.4L384 80l-3.9 1.8c-1 0.5-24.4 11.4-29.9 34.9-3.7 16.2 2 34 17.1 53-0.6 1.5-0.8 3.4 0.1 5.5 2.1 4.6 9.1 7.4 22 8.9 16.3 1.9 41.6 1.5 75.3-1.2 3.7 0.8 27.5 5.6 54.7 5.6 7.1 0 14.5-0.3 21.8-1.2 4.9 0.4 67.3 4.9 116.5-9.1l1.3-0.4 0.6-1.2c1.1-2.4 11.1-23.4 7.6-32.6z" fill="#843A5F" /><path d="M750.1 914.4H275.6c-6.6 0-12-5.4-12-12V526.9c0-6.6 5.4-12 12-12h474.5c6.6 0 12 5.4 12 12v375.6c0 6.5-5.4 11.9-12 11.9z" fill="#FFFFFF" /><path d="M750.1 917.4H275.6c-8.3 0-15-6.7-15-15V526.9c0-8.3 6.7-15 15-15h474.5c8.3 0 15 6.7 15 15v375.6c0 8.2-6.7 14.9-15 14.9zM275.6 517.9c-5 0-9 4-9 9v375.6c0 5 4 9 9 9h474.5c5 0 9-4 9-9V526.9c0-5-4-9-9-9H275.6z" fill="#843A5F" /><path d="M287.8 741.2c-12.9 18-33.9 18-46.8 0-12.9-18-12.9-47.1 0-65 12.9-18 33.9-18 46.8 0 12.9 17.9 12.9 47 0 65z" fill="#E6D8DF" /><path d="M264.4 757.7c-9.8 0-19-5.2-25.8-14.7-13.6-18.9-13.6-49.7 0-68.6 6.8-9.5 16-14.7 25.8-14.7s19 5.2 25.8 14.7c13.6 18.9 13.6 49.7 0 68.6-6.8 9.5-16 14.7-25.8 14.7z m0-92c-7.8 0-15.3 4.3-21 12.2-12.2 17-12.2 44.6 0 61.5 5.7 7.9 13.1 12.2 21 12.2 7.8 0 15.3-4.3 21-12.2 12.2-17 12.2-44.6 0-61.5-5.7-7.9-13.1-12.2-21-12.2z" fill="#843A5F" /><path d="M786 741.2c-12.9 18-33.9 18-46.8 0-12.9-18-12.9-47.1 0-65 12.9-18 33.9-18 46.8 0 12.9 17.9 12.9 47 0 65z" fill="#E6D8DF" /><path d="M762.6 757.7c-9.8 0-19-5.2-25.8-14.7-13.6-18.9-13.6-49.7 0-68.6 6.8-9.5 16-14.7 25.8-14.7s19 5.2 25.8 14.7c13.6 18.9 13.6 49.7 0 68.6-6.8 9.5-16 14.7-25.8 14.7z m0-92c-7.8 0-15.3 4.3-21 12.2-12.2 17-12.2 44.6 0 61.5 5.7 7.9 13.1 12.2 21 12.2 7.8 0 15.3-4.3 21-12.2 12.2-17 12.2-44.6 0-61.5-5.7-7.9-13.2-12.2-21-12.2z" fill="#843A5F" /><path d="M512.5 540.4l-123.9 95.7h247.8zM349.9 836h320.5v44.6H349.9zM388.6 668.9h34v134.8h-34zM459.9 668.9h34v134.8h-34zM531.1 668.9h34v134.8h-34zM602.4 668.9h34v134.8h-34z" fill="#E6D8DF" /><path d="M652 833v-31h-12.7V672.2h24v-38.8h-25.7l-125.2-96.7-125.2 96.7h-30.4v38.8h28.7V802h-17.4v31h-21.3v50.6h326.5V833H652zM512.5 544.2l115.1 88.9H397.4l115.1-88.9z m120.9 128v128.5h-28V672.2h28z m-34 0V802h-31.3V672.2h31.3z m-37.3 0v128.5h-28V672.2h28z m-34 0V802h-31.3V672.2h31.3z m-37.2 0v128.5h-28V672.2h28z m-34 0V802h-31.3V672.2h31.3z m-37.3 0v128.5h-28V672.2h28z m247.8 205.4H352.9V839h314.5v38.6z" fill="#843A5F" /><path d="M480.5 664h-9.4v-19.6h9c4.3 0.1 6.5 1.7 6.8 4.7 0.1 2.4-1.2 3.9-3.8 4.6v0.1c2.8 0.5 4.3 2 4.6 4.6 0.1 3.7-2.3 5.6-7.2 5.6z m-1.1-16.5h-4.2v5h4.2c2.1-0.1 3.1-0.9 3.2-2.6 0-1.6-1.1-2.4-3.2-2.4z m0.5 8.1h-4.7v5.5h4.7c2.4 0 3.6-0.9 3.6-2.8-0.2-1.8-1.4-2.7-3.6-2.7zM501.6 644.4l7.5 19.6h-4.5l-1.6-4.5h-7.8l-1.6 4.5h-4.4l7.5-19.6h4.9z m-2.5 3.3c-0.1 0.6-0.3 1.2-0.5 1.8-0.1 0.1-0.9 2.4-2.4 6.9h6c-1.6-4.5-2.5-6.8-2.5-7-0.1-0.1-0.1-0.3-0.2-0.6-0.2-0.5-0.3-0.9-0.4-1.1zM528.5 664h-4.2c-5.2-8.1-7.9-12.3-8.1-12.7-0.6-0.9-0.9-1.6-1.1-2 0.1 0.6 0.1 1.7 0.1 3.5V664h-3.8v-19.6h4.4c5 8 7.6 12.2 7.9 12.6 0.6 1 1 1.7 1 2h0.1c-0.1-0.4-0.1-1.4-0.1-3v-11.5h3.8V664zM551.2 664H546l-5.9-8.5-3.2 3.3v5.3h-4.1v-19.6h4.1v9.4l8.6-9.3h5.1l-8 8.3 8.6 11.1z" fill="#FFFFFF" /></svg>