<?xml version="1.0" encoding="utf-8"?>
<!-- Uploaded to: SVG Repo, www.svgrepo.com, Generator: SVG Repo Mixer Tools -->
<svg width="800px" height="800px" viewBox="0 0 1024 1024" class="icon"  version="1.1" xmlns="http://www.w3.org/2000/svg"><path d="M993.763 493.538v35c0 13.33-6.04 26.663-18.134 37.136-140.15 121.421-280.351 242.793-420.488 364.219-11.816 10.24-25.814 15.501-42.455 15.501v-35c16.641 0 30.639-5.265 42.455-15.501 140.138-121.426 280.333-242.802 420.488-364.216 12.094-10.476 18.134-23.803 18.134-37.139z" fill="#EAAB3C" /><path d="M30.239 528.366v-3.5-1.75-3.5-3.5-1.75-3.5-3.5-1.75-3.5-3.5-1.75-3.5c0 14.708 6.701 29.313 19.038 40.02C187.725 653.45 326.325 773.382 464.838 893.403c13.002 11.262 28.74 16.468 47.853 16.996v35c-19.109-0.528-34.851-5.735-47.853-16.996C326.325 808.382 187.725 688.448 49.276 568.386c-12.337-10.705-19.037-25.312-19.037-40.02z" fill="#EAAB3C" /><path d="M510.786 76.601c16.263 0 32.546 5.362 44.946 16.097 139.949 121.188 279.9 242.375 419.819 363.584 24.24 20.995 24.295 53.414 0.078 74.396-140.15 121.42-280.35 242.797-420.488 364.219-11.816 10.239-25.813 15.502-42.454 15.502-19.109-0.528-34.851-5.734-47.853-16.994C326.323 773.382 187.723 653.45 49.273 533.386c-19.58-16.988-24.96-43.81-11.895-65.252 3.919-6.437 8.669-11.829 14.465-16.85 138.109-119.549 276.18-239.132 414.263-358.717 12.297-10.64 28.479-15.966 44.68-15.966z" fill="#E9D741" /><path d="M341.142 504.924v16.799c0-49.568-0.003-99.138-0.012-148.705v-16.8c0.009 49.569 0.012 99.137 0.012 148.706z" fill="#E85739" /><path d="M341.142 516.417v-16.8c0-47.802-0.003-95.599-0.012-143.398 0-4.959 0.542-9.821 3.073-14.352 5.753-10.309 16.127-13.618 28.384-13.653 12.817-0.036 25.639-0.048 38.449-0.048 17.944 0 35.885 0.021 53.832 0.021h141.634v16.8H464.868c-17.947 0-35.887-0.021-53.832-0.021-12.813 0-25.633 0.011-38.449 0.048-12.258 0.035-22.631 3.343-28.384 13.652-2.533 4.53-3.073 9.393-3.073 14.352 0.009 47.799 0.012 95.599 0.012 143.399z" fill="#E85739" /><path d="M596.525 380.626v-16.8c0-12.418 0.838-24.48 9.979-35.64v16.8c-9.141 11.161-9.979 23.223-9.979 35.64zM709.073 416.087v-1.682-0.842-1.682-1.682-0.842-1.682-1.683-0.842-1.68-1.683-0.844-1.682c0-16.04 0.071-32.08 0.297-48.116v16.8c-0.228 16.047-0.297 32.096-0.297 48.142zM623.045 378.353c-0.06 14.409-0.067 28.818-0.067 43.228v-16.8c0-14.41 0.008-28.819 0.067-43.228 0.062-15.889 8.528-26.32 23.235-31.322a28.376 28.376 0 0 1 9.089-1.477c12.788 0 25.332 8.306 26.968 21.624 0.264 2.183 0.352 4.382 0.362 6.582 0.021 9.334 0.024 18.667 0.024 28.005v16.799c0-9.334-0.004-18.669-0.024-28.003-0.011-2.2-0.102-4.4-0.362-6.582-1.636-13.318-14.18-21.624-26.968-21.624-3.065 0-6.147 0.477-9.089 1.477-14.707 5.001-23.174 15.432-23.235 31.321z" fill="#E85739" /><path d="M682.721 385.636v16.8l-0.001 19.817v-16.8l0.001-19.817zM622.98 420.675v16.8c0-5.179-0.004-10.359-0.004-15.541v-16.8c0.004 5.182 0.004 10.363 0.004 15.541z" fill="#E85739" /><path d="M682.704 448.377v-16.8c0-8.708 0.019-17.413 0.019-26.122v16.8c-0.003 8.707-0.019 17.414-0.019 26.122z" fill="#E85739" /><path d="M682.779 474.622c-0.06-8.8-0.077-17.596-0.077-26.395v-16.8c0 8.798 0.018 17.593 0.077 26.395 0.002 0.036 0.002 0.072 0.002 0.105v16.8c0-0.036 0-0.07-0.002-0.105zM622.98 437.523c0 12.477-0.009 24.954-0.045 37.431v-16.8c0.036-12.477 0.045-24.954 0.045-37.431v16.8z" fill="#E85739" /><path d="M682.781 457.92v16.8c0 2.398-0.373 3.463-3.623 3.463-8.6-0.081-17.076-0.116-25.553-0.116-8.993 0-17.984 0.04-26.975 0.107-2.998 0-3.698-0.741-3.698-3.221 0.037-12.493 0.042-24.985 0.042-37.478v-16.8c0 12.492-0.005 24.984-0.042 37.478 0 2.48 0.7 3.221 3.698 3.221a3619.4 3619.4 0 0 1 26.975-0.106c8.477 0 16.953 0.036 25.553 0.116 3.252-0.001 3.623-1.066 3.623-3.464z" fill="#E85739" /><path d="M655.369 328.755c12.79 0 25.334 8.306 26.968 21.623 0.264 2.183 0.352 4.382 0.362 6.583 0.031 16.159 0.023 32.324 0.023 48.494 0 17.459-0.061 34.91 0.062 52.366 0.008 2.469-0.327 3.562-3.623 3.562-8.6-0.081-17.076-0.116-25.556-0.116-8.991 0-17.981 0.04-26.972 0.107-2.999 0-3.698-0.741-3.698-3.221 0.097-32.203-0.023-64.407 0.11-96.6 0.061-15.887 8.527-26.32 23.234-31.322 2.946-1 6.025-1.476 9.09-1.476z" fill="#ECD140" /><path d="M622.496 504.667v-16.8c0-1.299 0.275-2.42 1.216-3.106 0.938-0.685 2.373-0.875 3.985-0.875 1.021 0 2.112 0.08 3.19 0.15 1.031 0.067 2.067 0.141 3.175 0.14 12.459-0.008 24.921-0.008 37.376-0.008 10.384 0 20.766 0 31.157-0.008 4.891 0 6.685-1.581 6.685-5.779v16.8c0 4.199-1.794 5.779-6.685 5.779-10.392 0.008-20.773 0.008-31.157 0.008-12.455 0-24.917 0-37.376 0.008-1.107 0.001-2.141-0.072-3.175-0.139-1.078-0.077-2.171-0.15-3.19-0.15-1.609 0-3.048 0.19-3.985 0.875-0.941 0.683-1.216 1.806-1.216 3.105zM314.627 435.284v-16.8c0 33.932 0.013 67.866 0.013 101.797v16.801c-0.001-33.933-0.013-67.866-0.013-101.798zM596.619 521.696v16.801c0-52.47-0.021-104.941-0.094-157.413-0.002-0.148-0.002-0.295-0.002-0.444v-16.8a107267.3 107267.3 0 0 1 0.096 157.856z" fill="#E85739" /><path d="M623.006 605.202v-16.801c0-31.589 0.01-63.175 0.029-94.763v16.8c-0.019 31.588-0.029 63.176-0.029 94.764zM596.619 521.539v16.801c0 44.697-0.016 89.395-0.016 134.091v-16.8c0.002-44.696 0.016-89.394 0.016-134.092zM341.142 499.617v16.8c0 52.679-0.003 105.355-0.003 158.033v-16.801c-0.002-52.677 0.003-105.353 0.003-158.032z" fill="#E85739" /><path d="M596.605 660.338v16.8c-1.952 0.031-2.855-0.978-3.911-1.58-39.116-22.558-78.22-45.149-117.331-67.724-2.61-1.511-4.572-2.266-6.534-2.266-1.946 0-3.888 0.743-6.46 2.231-39.1 22.586-78.198 45.169-117.301 67.758-1.087 0.629-2.188 1.239-3.932 2.235v-16.801c1.745-0.995 2.844-1.604 3.932-2.235 39.103-22.591 78.201-45.176 117.301-67.758 2.572-1.487 4.516-2.23 6.46-2.23 1.96 0 3.924 0.754 6.534 2.265 39.111 22.575 78.211 45.167 117.331 67.724 1.056 0.603 1.959 1.612 3.911 1.581z" fill="#E85739" /><path d="M411.039 328.167c17.944 0 35.883 0.021 53.832 0.021h141.633c-9.253 11.295-9.998 23.517-9.979 36.096 0.141 97.116 0.08 194.232 0.08 291.347v4.704c-1.952 0.031-2.855-0.978-3.911-1.58-39.116-22.558-78.22-45.149-117.331-67.724-2.61-1.511-4.572-2.266-6.534-2.266-1.946 0-3.888 0.743-6.46 2.231-39.1 22.583-78.198 45.169-117.301 67.758-1.087 0.629-2.188 1.239-3.932 2.235v-3.343c0-100.48 0.011-200.955-0.009-301.432 0-4.959 0.544-9.821 3.075-14.352 5.753-10.309 16.127-13.618 28.383-13.652 12.821-0.032 25.638-0.043 38.454-0.043z" fill="#ECD140" /><path d="M709.37 351.146c-0.562 39.562-0.147 79.132-0.147 118.707 0 2.834 0.06 5.682 0.06 8.528 0 4.199-1.793 5.779-6.684 5.779-10.393 0.008-20.773 0.008-31.157 0.008-12.455 0-24.917 0-37.373 0.008-1.109 0.001-2.144-0.073-3.178-0.14-1.078-0.075-2.171-0.15-3.19-0.15-1.609 0-3.048 0.191-3.985 0.875-2.258 1.641-0.675 5.823-0.675 8.878-0.041 66.47-0.041 132.924 0.01 199.394 0 2.555 0.062 5.15-2.933 6.303a8.929 8.929 0 0 1-3.22 0.608c-1.849 0-3.692-0.59-5.528-1.656-46.392-26.854-92.858-53.599-139.237-80.463-1.259-0.726-2.271-1.111-3.3-1.111-0.963 0-1.948 0.338-3.171 1.052-46.237 26.808-92.564 53.513-138.864 80.24-1.71 0.981-3.315 1.948-5.585 1.948-4.766-0.054-6.561-1.406-6.561-5.492-0.03-11.119-0.01-22.243-0.01-33.363V520.283c0-56.376-0.031-112.75 0.01-169.126 0.019-20.113 14.029-37.327 35.299-43.613 5.131-1.51 10.402-2.209 15.816-2.209 53.856 0.005 107.728 0.053 161.587 0.053 43.339 0 86.668-0.031 130.005-0.141 26.725 0 52.364 21.183 52.011 45.899zM596.605 655.633c0-97.113 0.061-194.229-0.08-291.346-0.02-12.579 0.726-24.799 9.979-36.097H464.871c-17.947 0-35.887-0.021-53.832-0.021-12.812 0-25.633 0.011-38.45 0.047-12.258 0.035-22.631 3.343-28.387 13.653-2.531 4.531-3.071 9.393-3.071 14.351 0.019 100.477 0.008 200.957 0.008 301.431v3.343c1.746-0.995 2.842-1.604 3.931-2.235 39.103-22.591 78.202-45.175 117.302-67.756 2.57-1.489 4.516-2.233 6.46-2.233 1.961 0 3.924 0.755 6.534 2.266 39.111 22.575 78.209 45.167 117.331 67.724 1.058 0.604 1.958 1.612 3.45 1.612 0.458-1.64 0.458-3.185 0.458-4.739m82.435-194.25c3.413 0 3.749-1.091 3.739-3.562-0.12-17.459-0.062-34.91-0.062-52.366 0-16.167 0.013-32.334-0.021-48.493-0.011-2.2-0.099-4.4-0.362-6.582-1.635-13.319-14.179-21.625-26.968-21.625-3.065 0-6.146 0.478-9.089 1.477-14.707 5.003-23.174 15.434-23.235 31.322-0.133 32.195-0.013 64.397-0.109 96.602 0 2.479 0.698 3.221 3.593 3.221 9.093-0.068 18.084-0.108 27.074-0.108 8.482-0.002 16.962 0.034 25.44 0.114" fill="#EC813A" /><path d="M623.045 693.332v16.8c0 2.458-0.057 4.894-2.936 6.001a8.901 8.901 0 0 1-3.217 0.608c-1.852 0-3.693-0.59-5.532-1.656-46.389-26.854-92.855-53.599-139.237-80.463-1.256-0.726-2.268-1.111-3.298-1.111-0.964 0-1.948 0.338-3.17 1.052-46.237 26.808-92.564 53.513-138.864 80.24-1.71 0.981-3.315 1.948-5.585 1.948-4.766-0.054-6.561-1.406-6.561-5.492-0.012-4.768-0.018-9.533-0.018-14.301v-1.678-0.837-1.676-0.838-1.677-0.839-1.675-1.677-0.839-1.677-1.676-0.837-0.841c0 4.755 0.006 9.51 0.018 14.264 0 4.087 1.792 5.438 6.561 5.492 2.27 0 3.876-0.965 5.585-1.948 46.298-26.732 92.625-53.433 138.864-80.24 1.221-0.714 2.204-1.052 3.17-1.052 1.03 0 2.042 0.386 3.298 1.112 46.379 26.863 92.848 53.608 139.237 80.46 1.839 1.069 3.682 1.658 5.532 1.658 1.068 0 2.14-0.198 3.217-0.611 2.879-1.1 2.936-3.536 2.936-5.994z" fill="#E85739" /></svg>