<?xml version="1.0" encoding="utf-8"?>
<!-- Uploaded to: SVG Repo, www.svgrepo.com, Generator: SVG Repo Mixer Tools -->
<svg width="800px" height="800px" viewBox="0 0 1024 1024" class="icon"  version="1.1" xmlns="http://www.w3.org/2000/svg"><path d="M993.763 493.538v35c0 13.331-6.04 26.664-18.134 37.137-140.15 121.422-280.351 242.795-420.488 364.219-11.815 10.237-25.813 15.501-42.455 15.501v-35c16.642 0 30.64-5.264 42.455-15.501C695.278 773.47 835.474 652.092 975.629 530.677c12.094-10.475 18.134-23.803 18.134-37.139z" fill="#F7D987" /><path d="M30.239 528.367v-3.5-1.75-3.5-3.5-1.75-3.5-3.5-1.75-3.5-3.5-1.75-3.5c0 14.707 6.701 29.313 19.038 40.019 138.449 120.064 277.049 239.996 415.562 360.02 13.002 11.26 28.74 16.466 47.854 16.994v35c-19.109-0.528-34.852-5.734-47.854-16.994C326.325 808.382 187.725 688.45 49.276 568.386c-12.337-10.705-19.037-25.312-19.037-40.019z" fill="#F7D987" /><path d="M510.786 76.601c16.263 0 32.546 5.362 44.946 16.097C695.68 213.886 835.631 335.074 975.55 456.284c24.24 20.995 24.295 53.413 0.078 74.396-140.15 121.42-280.35 242.797-420.488 364.218-11.815 10.238-25.813 15.502-42.453 15.502-19.109-0.528-34.852-5.734-47.854-16.994-138.51-120.024-277.11-239.956-415.56-360.02-19.58-16.987-24.96-43.81-11.895-65.251 3.919-6.438 8.669-11.829 14.465-16.849 138.109-119.551 276.18-239.133 414.262-358.718 12.298-10.641 28.48-15.967 44.681-15.967z" fill="#F5F18A" /><path d="M671.359 434.4c-30.701-3.806-61.396-7.666-92.119-11.35v-1.962-2.082-2.16-2.2-2.196-2.159-2.08-1.959c30.721 3.686 61.418 7.545 92.119 11.349 9.728 1.203 19.443 2.409 29.294 3.631v16.8c-9.849-1.224-19.566-2.428-29.294-3.632z" fill="#F5BC4E" /><path d="M700.653 421.23v16.8c-9.851-1.223-19.566-2.429-29.294-3.631-30.701-3.806-61.396-7.666-92.119-11.35-6.271-0.759-10.144-3.526-12.864-8.354-10.284-18.173-20.767-36.263-31.176-54.384-7.766-13.488-15.54-26.967-23.5-40.795v-16.8c7.962 13.828 15.734 27.307 23.5 40.795 10.409 18.121 20.892 36.209 31.176 54.384 2.721 4.829 6.591 7.596 12.864 8.354 30.721 3.685 61.418 7.545 92.119 11.349l29.294 3.632" fill="#F5BC4E" /><path d="M322.884 439.053c0.031-5.581 0.031-11.233 0-16.8 10.15-1.344 19.654-2.618 29.162-3.84 30.976-3.963 61.95-7.927 92.938-11.847 5.966-0.75 9.889-3.406 12.548-8.162 0.035-0.063 0.067-0.123 0.104-0.184v16.797c-0.035 0.062-0.067 0.122-0.104 0.183-2.658 4.755-6.583 7.412-12.548 8.162-30.987 3.919-61.962 7.883-92.938 11.847-9.506 1.226-19.012 2.499-29.162 3.844z" fill="#F5BC4E" /><path d="M511.702 302.719v16.8c-0.938 1.589-1.684 2.794-2.379 4.017-17.287 30.545-34.625 61.071-51.792 91.669a17.688 17.688 0 0 1-1.947 2.834v-16.8a17.96 17.96 0 0 0 1.947-2.834c17.166-30.598 34.505-61.125 51.792-91.669 0.697-1.224 1.443-2.427 2.379-4.017" fill="#F5BC4E" /><path d="M455.586 401.241v16.8a14.194 14.194 0 0 1-3.232 2.841v-16.8a14.36 14.36 0 0 0 3.232-2.841M452.354 404.082v16.8a15.024 15.024 0 0 1-2.929 1.441v-16.8a15.165 15.165 0 0 0 2.929-1.441M449.424 405.523v16.8c-1.265 0.466-2.654 0.801-4.181 1.009v-16.8c1.523-0.208 2.912-0.543 4.181-1.009M445.241 406.532v16.8l-0.261 0.034c-30.986 3.92-61.962 7.883-92.938 11.847-9.507 1.223-19.012 2.497-29.162 3.841v-16.8c10.15-1.344 19.655-2.618 29.162-3.84 30.975-3.963 61.95-7.927 92.938-11.847 0.09-0.013 0.174-0.025 0.261-0.035" fill="#F5BC4E" /><path d="M608.235 523.039v-16.8c0-4.224 1.932-7.583 5.78-10.823 27.94-23.517 55.739-47.175 83.574-70.805 1.084-0.925 2.629-1.598 3.063-3.379v16.8c-0.435 1.781-1.977 2.453-3.063 3.38-27.835 23.63-55.634 47.288-83.574 70.805-3.848 3.238-5.78 6.599-5.78 10.822z" fill="#F5BC4E" /><path d="M700.653 421.23v16.8a3.536 3.536 0 0 1-0.763 1.484v-16.8a3.56 3.56 0 0 0 0.763-1.484" fill="#F5BC4E" /><path d="M699.892 422.714v16.8c-0.666 0.784-1.581 1.281-2.301 1.896-27.835 23.63-55.634 47.288-83.574 70.805a21.965 21.965 0 0 0-2.625 2.581v-16.8c0.744-0.877 1.619-1.732 2.625-2.581 27.94-23.517 55.739-47.175 83.574-70.805 0.719-0.612 1.635-1.113 2.301-1.896M611.392 497.995v16.8c-1.921 2.262-2.967 4.668-3.133 7.444v-16.801c0.166-2.775 1.212-5.182 3.133-7.443M608.259 505.439v16.8c-0.016 0.263-0.022 0.528-0.022 0.797v-16.799c-0.002-0.268 0.006-0.533 0.022-0.798" fill="#F5BC4E" /><path d="M416.443 506.684v16.801c0-4.04-1.861-7.391-5.621-10.519-28.187-23.499-56.197-47.16-84.26-70.753-1.059-0.891-2.088-1.799-3.68-3.161v-16.8c1.593 1.362 2.621 2.271 3.68 3.161 28.063 23.595 56.073 47.254 84.26 70.753 3.761 3.128 5.621 6.478 5.621 10.518z" fill="#F5BC4E" /><path d="M416.443 506.684v16.801c0-4.04-1.861-7.391-5.621-10.519-28.187-23.499-56.197-47.16-84.26-70.753-1.059-0.891-2.088-1.799-3.68-3.161v-16.8c1.593 1.362 2.621 2.271 3.68 3.161 28.063 23.595 56.073 47.254 84.26 70.753 3.761 3.128 5.621 6.478 5.621 10.518" fill="#F5BC4E" /><path d="M634.606 527.844v-16.8c0-1.79 0.822-3.142 2.531-4.585 32.269-27.289 64.434-54.674 96.656-81.987 2.998-2.542 5.746-5.167 7.604-8.441v16.8c-1.856 3.272-4.606 5.901-7.604 8.442-32.224 27.313-64.389 54.696-96.656 81.986-1.707 1.443-2.531 2.795-2.531 4.585z" fill="#F5BC4E" /><path d="M741.396 416.028v16.8c-0.693 1.227-1.515 2.361-2.427 3.437v-16.8a22.56 22.56 0 0 0 2.427-3.437" fill="#F5BC4E" /><path d="M738.969 419.465v16.8c-1.521 1.794-3.301 3.414-5.174 5.005-32.224 27.314-64.389 54.697-96.656 81.987-0.479 0.405-0.889 0.802-1.229 1.203v-16.8a10.6 10.6 0 0 1 1.229-1.203c32.269-27.289 64.434-54.674 96.656-81.987 1.873-1.59 3.651-3.211 5.174-5.005M635.908 507.661v16.8c-0.798 0.94-1.223 1.904-1.29 3.046v-16.799c0.07-1.14 0.492-2.106 1.29-3.047M634.618 510.708v16.799c-0.006 0.111-0.013 0.225-0.013 0.337v-16.8c0.001-0.114 0.007-0.226 0.013-0.336" fill="#F5BC4E" /><path d="M390.123 511.316v16.799c0-1.771-1.16-2.813-2.575-3.993-32.074-26.905-64.12-53.826-96.192-80.731-3.279-2.75-6.604-5.446-8.75-9.008v-16.8c2.146 3.563 5.471 6.259 8.75 9.009 32.073 26.905 64.118 53.826 96.192 80.731 1.415 1.179 2.575 2.222 2.575 3.993z" fill="#F5BC4E" /><path d="M390.123 511.316v16.799c0-1.771-1.16-2.813-2.575-3.993-32.074-26.905-64.12-53.826-96.192-80.731-3.279-2.75-6.604-5.446-8.75-9.008v-16.8c2.146 3.563 5.471 6.259 8.75 9.009 32.073 26.905 64.118 53.826 96.192 80.731 1.415 1.179 2.575 2.222 2.575 3.993" fill="#F5BC4E" /><path d="M629.075 613.943v16.8a85520.037 85520.037 0 0 1-47.497-21.475c-20.061-9.07-40.188-18.019-60.117-27.28-3.087-1.431-5.979-2.125-8.859-2.125-3.024 0-6.035 0.768-9.244 2.254-34.252 15.896-68.627 31.575-102.958 47.323-1.424 0.646-2.861 1.273-4.719 2.095v-16.8c1.855-0.82 3.295-1.448 4.719-2.096 34.329-15.749 68.706-31.425 102.958-47.323 3.209-1.487 6.217-2.253 9.244-2.253 2.883 0 5.772 0.692 8.859 2.125 19.929 9.263 40.058 18.211 60.117 27.279a72957.246 72957.246 0 0 0 47.497 21.476z" fill="#F5BC4E" /><path d="M629.075 613.943v16.8a85520.037 85520.037 0 0 1-47.497-21.475c-20.061-9.07-40.188-18.019-60.117-27.28-3.087-1.431-5.979-2.125-8.859-2.125-0.823 0-1.646 0.055-2.473 0.167v-16.801a18.533 18.533 0 0 1 2.473-0.166c2.883 0 5.772 0.692 8.859 2.125 19.929 9.263 40.058 18.211 60.117 27.279a72957.246 72957.246 0 0 0 47.497 21.476M510.128 563.233v16.8c-1.498 0.205-3.008 0.598-4.553 1.162v-16.801c1.546-0.566 3.055-0.956 4.553-1.161" fill="#F5BC4E" /><path d="M505.576 564.396v16.801c-0.731 0.268-1.468 0.577-2.217 0.924-34.252 15.896-68.626 31.577-102.958 47.324-1.421 0.648-2.861 1.273-4.719 2.095v-16.8c1.855-0.82 3.296-1.447 4.719-2.096 34.329-15.749 68.704-31.425 102.958-47.323a27.74 27.74 0 0 1 2.217-0.925" fill="#F5BC4E" /><path d="M511.704 302.719c7.962 13.828 15.733 27.305 23.498 40.793 10.413 18.121 20.895 36.209 31.176 54.384 2.721 4.828 6.593 7.595 12.864 8.354 30.721 3.683 61.418 7.544 92.122 11.349 9.726 1.202 19.44 2.409 29.291 3.63-0.435 1.78-1.977 2.452-3.063 3.38-27.835 23.63-55.634 47.288-83.572 70.805-4.819 4.058-6.635 8.301-5.414 14.194 6.935 33.417 13.525 66.88 20.251 100.33 0.254 1.238 0.839 2.452 0.221 4.006a88970.155 88970.155 0 0 1-47.497-21.476c-20.06-9.07-40.188-18.018-60.116-27.28-3.088-1.431-5.979-2.122-8.858-2.122-3.026 0-6.037 0.766-9.245 2.251-34.252 15.896-68.624 31.576-102.958 47.323-1.42 0.648-2.861 1.274-4.719 2.096 4.024-20.792 7.963-41.151 11.915-61.51 2.812-14.507 5.583-29.024 8.527-43.523 1.098-5.45-0.646-9.665-5.301-13.54-28.187-23.499-56.197-47.16-84.26-70.753-1.059-0.895-2.087-1.799-3.68-3.161 10.15-1.344 19.658-2.62 29.162-3.84a64095.79 64095.79 0 0 1 92.939-11.846c5.966-0.75 9.889-3.407 12.548-8.162 17.169-30.598 34.505-61.124 51.792-91.671 0.693-1.218 1.439-2.423 2.377-4.011z" fill="#F5F18A" /><path d="M728.654 402.263c6.16 0.715 10.182 3.622 12.745 8.336v5.429c-1.856 3.273-4.606 5.901-7.604 8.442-32.224 27.313-64.389 54.697-96.656 81.987-2.148 1.816-2.89 3.481-2.365 6.058 7.379 36.098 14.655 72.222 21.954 108.325 0.693 3.438 1.432 6.86 2.115 10.301 0.979 4.803-0.037 9.069-4.875 12.045-2.348 1.443-4.733 2.071-7.146 2.071-2.522 0-5.071-0.687-7.619-1.842a38663.149 38663.149 0 0 0-51.033-23.136c-24.014-10.867-48.051-21.688-72.014-32.646-1.258-0.577-2.372-0.847-3.47-0.847-1.235 0-2.449 0.345-3.829 0.979-40.724 18.792-81.52 37.483-122.271 56.242-2.659 1.229-5.31 1.961-7.916 1.961-2.454 0-4.87-0.647-7.212-2.143-4.658-2.959-5.949-7.15-4.799-12.065 0.958-4.042 1.533-8.151 2.327-12.22 6.983-35.777 13.962-71.548 21.048-107.306 0.464-2.355-0.836-3.542-2.479-4.914-32.073-26.905-64.118-53.826-96.192-80.731-3.279-2.75-6.604-5.447-8.75-9.008v-5.433c2.548-5.629 7.438-7.984 14.281-8.84 39.85-4.951 79.645-10.171 119.449-15.295 5.896-0.759 11.774-1.684 17.704-2.226 2.7-0.244 3.363-1.789 4.272-3.387 15.887-28.118 31.771-56.245 47.668-84.363 4.445-7.865 8.981-15.704 13.33-23.605 2.518-4.565 6.195-7.612 12.293-7.604 6.1 0 9.739 3.108 12.318 7.614 20.503 35.782 41.097 71.514 61.528 107.321 1.351 2.365 3.005 3.387 5.919 3.737 30.27 3.657 60.526 7.402 90.789 11.112 15.485 1.905 30.98 3.843 46.49 5.651z m-31.063 22.347c1.084-0.926 2.629-1.599 3.063-3.379-9.851-1.223-19.566-2.429-29.294-3.631-30.701-3.805-61.396-7.666-92.119-11.349-6.271-0.759-10.144-3.526-12.864-8.354-10.284-18.173-20.767-36.263-31.176-54.384-7.766-13.488-15.54-26.967-23.5-40.795-0.938 1.589-1.684 2.794-2.379 4.016-17.287 30.546-34.623 61.072-51.792 91.671-2.658 4.755-6.583 7.412-12.548 8.162a63392.197 63392.197 0 0 0-92.938 11.847c-9.507 1.222-19.012 2.497-29.162 3.84 1.593 1.36 2.621 2.271 3.679 3.16 28.063 23.595 56.074 47.254 84.259 70.753 4.656 3.876 6.399 8.089 5.3 13.539-2.942 14.497-5.715 29.017-8.527 43.525a93508.844 93508.844 0 0 0-11.913 61.508c1.854-0.82 3.296-1.445 4.717-2.092 34.33-15.75 68.707-31.429 102.958-47.324 3.21-1.488 6.218-2.254 9.245-2.254 2.883 0 5.771 0.69 8.856 2.123 19.928 9.264 40.06 18.211 60.119 27.28 15.805 7.147 31.611 14.299 47.495 21.478 0.615-1.557 0.027-2.771-0.222-4.01-6.722-33.451-13.313-66.909-20.249-100.328-1.221-5.892 0.596-10.132 5.411-14.193 27.947-23.521 55.749-47.18 83.581-70.809" fill="#F5D752" /><path d="M659.178 634.257v16.801c0 3.521-1.453 6.617-5.216 8.931-2.348 1.443-4.735 2.07-7.146 2.07-2.522 0-5.07-0.686-7.62-1.841a39386.377 39386.377 0 0 0-51.032-23.136c-24.013-10.868-48.051-21.688-72.014-32.646-1.256-0.577-2.373-0.848-3.47-0.848-1.234 0-2.449 0.345-3.829 0.98-40.723 18.792-81.519 37.481-122.27 56.242-2.659 1.228-5.311 1.96-7.916 1.96-2.454 0-4.87-0.647-7.212-2.142-3.607-2.293-5.193-5.32-5.193-8.854v-16.801c0 3.533 1.587 6.564 5.193 8.854 2.345 1.494 4.758 2.143 7.212 2.143 2.605 0 5.255-0.731 7.916-1.961 40.751-18.756 81.547-37.448 122.27-56.24 1.38-0.637 2.595-0.98 3.829-0.98 1.097 0 2.211 0.271 3.47 0.846 23.96 10.958 47.998 21.781 72.014 32.647 17.011 7.7 34.031 15.411 51.032 23.134 2.55 1.155 5.101 1.842 7.62 1.842 2.414 0 4.802-0.626 7.146-2.07 3.763-2.314 5.216-5.411 5.216-8.931z" fill="#F5BC4E" /><path d="M659.178 634.257v16.801c0 0.248-0.007 0.493-0.021 0.738v-16.801c0.014-0.241 0.021-0.489 0.021-0.738M659.156 634.995v16.801c-0.129 2.1-0.813 4.031-2.246 5.72v-16.8c1.434-1.689 2.12-3.622 2.246-5.721" fill="#F5BC4E" /><path d="M656.911 640.716v16.8c-0.714 0.844-1.612 1.623-2.729 2.335v-16.8c1.113-0.711 2.015-1.493 2.729-2.335" fill="#F5BC4E" /><path d="M654.184 643.051v16.8c-0.071 0.047-0.145 0.09-0.219 0.138-0.854 0.524-1.717 0.942-2.584 1.264v-16.8a14.555 14.555 0 0 0 2.803-1.402M651.381 644.451v16.8c-0.906 0.331-1.824 0.555-2.745 0.681v-16.8a12.936 12.936 0 0 0 2.745-0.681M648.636 645.135v16.8a12.85 12.85 0 0 1-1.819 0.126c-2.522 0-5.07-0.687-7.62-1.842a40784.369 40784.369 0 0 0-51.032-23.136c-24.013-10.867-48.051-21.688-72.014-32.646-1.256-0.576-2.373-0.847-3.47-0.847-0.312 0-0.616 0.025-0.926 0.063v-16.801c0.31-0.038 0.615-0.063 0.926-0.063 1.095 0 2.211 0.27 3.47 0.847 23.96 10.958 47.998 21.78 72.014 32.646a40269.68 40269.68 0 0 1 51.032 23.136c2.55 1.155 5.101 1.842 7.62 1.842a13.84 13.84 0 0 0 1.819-0.125M511.754 586.849v16.801a9.153 9.153 0 0 0-1.857 0.481v-16.8a8.825 8.825 0 0 1 1.857-0.482M509.896 587.328v16.801c-0.34 0.127-0.688 0.27-1.047 0.438-40.723 18.792-81.52 37.481-122.27 56.241-0.641 0.296-1.28 0.563-1.919 0.798v-16.801c0.64-0.233 1.278-0.502 1.919-0.797 40.75-18.757 81.547-37.45 122.27-56.242a15.11 15.11 0 0 1 1.047-0.438" fill="#F5BC4E" /><path d="M384.662 644.805v16.802c-1.335 0.491-2.666 0.842-3.986 1.021v-16.8c1.32-0.181 2.65-0.531 3.986-1.023M380.675 645.829v16.8a14.84 14.84 0 0 1-2.011 0.144c-2.454 0-4.87-0.648-7.212-2.143-3.607-2.292-5.193-5.32-5.193-8.854v-16.801c0 3.532 1.587 6.563 5.193 8.854 2.345 1.494 4.758 2.143 7.212 2.143a15.364 15.364 0 0 0 2.011-0.143" fill="#F5BC4E" /></svg>