<?xml version="1.0" encoding="utf-8"?>
<!-- Uploaded to: SVG Repo, www.svgrepo.com, Generator: SVG Repo Mixer Tools -->
<svg width="800px" height="800px" viewBox="0 0 1024 1024" class="icon"  version="1.1" xmlns="http://www.w3.org/2000/svg"><path d="M993.763 493.538v35c0 13.331-6.04 26.664-18.135 37.137-140.149 121.422-280.35 242.795-420.49 364.219-11.813 10.237-25.813 15.501-42.454 15.501v-35c16.645 0 30.642-5.264 42.454-15.501C695.28 773.47 835.474 652.092 975.628 530.677c12.095-10.475 18.135-23.803 18.135-37.139z" fill="#ECAE2C" /><path d="M30.239 528.367v-3.5-1.75-3.5-3.5-1.75-3.5-3.5-1.75-3.5-3.5-1.75-3.5c0 14.707 6.701 29.313 19.037 40.019 138.449 120.064 277.049 239.996 415.562 360.02 13.002 11.26 28.74 16.466 47.854 16.994v35c-19.108-0.528-34.852-5.734-47.854-16.994C326.325 808.382 187.725 688.45 49.276 568.386c-12.337-10.705-19.037-25.312-19.037-40.019z" fill="#ECAE2C" /><path d="M510.786 76.601c16.263 0 32.546 5.362 44.946 16.097 139.949 121.188 279.9 242.376 419.818 363.586 24.241 20.995 24.295 53.413 0.079 74.396C835.48 652.101 695.28 773.478 555.141 894.898c-11.813 10.237-25.813 15.502-42.45 15.502-19.109-0.528-34.854-5.734-47.854-16.994C326.324 773.382 187.724 653.45 49.275 533.386c-19.581-16.986-24.96-43.81-11.895-65.251 3.919-6.438 8.669-11.829 14.465-16.849C189.954 331.734 328.024 212.152 466.107 92.567c12.296-10.639 28.478-15.966 44.679-15.966z" fill="#F5DA4B" /><path d="M588.145 328.01c19.243 16.69 38.457 33.372 57.549 49.94h-57.549v-49.94z" fill="#DFCC78" /><path d="M478.747 378.308h0.733c1.957 0 3.916 0.002 5.87 0.003 2.691 0.002 5.382 0.007 8.071 0.015 8.176 0.026 12.631 3.963 12.643 11.051 0.01 7.123-4.386 11.114-12.568 11.13-5.83 0.01-11.661 0.018-17.49 0.023-5.065 0.002-10.139 0.005-15.208 0.005h-1.611c-6.519 0-13.037-0.003-19.557-0.008-6.802-0.005-13.603-0.016-20.405-0.027-8.125-0.019-12.731-4.112-12.731-11.052-0.009-7.01 4.587-11.095 12.65-11.122 3.009-0.008 6.015-0.012 9.021-0.016l5.075-0.001H435.117c3.444 0.001 6.891 0.001 10.336 0.005 3.76 0.001 7.518 0.004 11.278 0.004 3.973 0 7.947-0.003 11.924-0.006l9.173-0.004h0.919z" fill="#F3A24B" /><path d="M605.362 451.881v16.8c-19.403 0.037-38.808 0.063-58.205 0.078-18.634 0.016-37.268 0.021-55.896 0.021h-0.624v-16.802h0.624c18.629 0 37.263-0.005 55.896-0.019 19.4-0.015 38.801-0.04 58.205-0.078z" fill="#DA933E" /><path d="M605.362 451.881v16.8c-19.403 0.037-38.808 0.063-58.205 0.078-18.634 0.016-37.268 0.021-55.896 0.021h-0.624v-16.802h0.624c18.629 0 37.263-0.005 55.896-0.019 19.4-0.015 38.801-0.04 58.205-0.078" fill="#DA933E" /><path d="M411.84 499.764c-0.012-0.633-0.018-1.48 0.012-2.114 0.017-0.327 0.05-0.771 0.07-1.1 0.074-1.102 0.15-2.204 0.223-3.306 0.119-1.805 0.23-3.707 0.173-5.373-0.069-1.932-0.304-2.948-0.308-2.957-0.12-0.516-0.494-1.135-0.76-1.59 0.235-0.15 0.478-0.294 0.728-0.435 2.302-1.272 5.597-1.647 8.448-1.657 14.81-0.028 29.618-0.05 44.425-0.059 14.063-0.01 28.115-0.012 42.176-0.012l0.572-0.001 0.673 0.001c9.425 0 18.84 0 28.262 0.002l30.275 0.005c4.295 0 8.592-0.004 12.884-0.007l9.364-0.007H590.983v0c2.069 0 4.147 0.001 6.224 0.006V481.16H597.787V481.16c2.076 0.002 4.149 0.008 6.228 0.014v0l0.85 0.002c8.03 0.026 12.62 4.155 12.6 11.184v16.8c0.021-7.029-4.566-11.158-12.6-11.182l-0.836-0.003v-0.45-0.479-0.495-0.503-0.506-0.494-0.479-0.448V497.975a2553.86 2553.86 0 0 0-6.191-0.017v-0.06-0.031-0.064-0.031-0.068-0.033-0.069-0.033-0.068-0.034-0.041-0.008-0.017-0.008-0.021-0.008-0.02-0.009-0.017-0.01-0.018-0.853-1.791-0.932-1.904-0.965-1.943-0.965-1.903-0.927-1.786-0.854 15.488h-0.29l-0.428-0.001v-0.256-0.269-0.278-0.284-0.282-0.275-0.269-0.253V497.954c-2.044-0.001-4.09-0.004-6.134-0.004v-1.881-1.994-2.068-2.105-2.105-2.065-1.992-1.877 16.087h-1.923l-9.367 0.007c-4.291 0.002-8.587 0.008-12.883 0.008l-30.276-0.007c-9.42-0.002-18.837-0.004-28.26-0.004H507.03c-14.061 0-28.113 0.004-42.173 0.014-14.81 0.012-29.618 0.029-44.427 0.06-2.854 0.008-6.146 0.381-8.446 1.657a9.63 9.63 0 0 1-0.144 0.079z m185.36-17.531V496.232v-13.999" fill="#DA933E" /><path d="M617.457 492.361v16.8c0.021-7.027-4.566-11.156-12.602-11.183-2.438-0.008-4.878-0.014-7.316-0.019-2.233-0.002-4.469-0.004-6.706-0.004h-1.779c-3.123 0.001-6.244 0.004-9.366 0.007-4.291 0.002-8.588 0.008-12.883 0.008-10.092-0.003-20.187-0.006-30.275-0.007-9.42-0.004-18.836-0.004-28.262-0.004h-1.246c-14.06 0-28.112 0.004-42.174 0.014-14.808 0.012-29.617 0.029-44.425 0.06-1.187 0.004-2.45 0.07-3.688 0.239V481.47a28.19 28.19 0 0 1 3.688-0.237c14.809-0.028 29.617-0.05 44.425-0.059 14.062-0.01 28.115-0.012 42.174-0.012l0.573-0.001 0.673 0.001c9.425 0 18.841 0 28.262 0.002l30.275 0.005c4.295 0 8.592-0.004 12.883-0.007l9.366-0.007h1.779c2.237 0 4.473 0.001 6.706 0.006 2.438 0.002 4.877 0.008 7.316 0.018 8.036 0.026 12.624 4.154 12.602 11.182" fill="#DA933E" /><path d="M416.737 481.47v16.8c-1.188 0.163-2.353 0.42-3.396 0.805v-16.8c1.046-0.387 2.207-0.642 3.396-0.805M413.34 482.272v16.8c-0.484 0.178-0.938 0.38-1.365 0.612-0.241 0.137-0.479 0.276-0.707 0.423v-16.802c0.229-0.145 0.465-0.286 0.707-0.421 0.425-0.23 0.882-0.434 1.365-0.612" fill="#DA933E" /><path d="M411.27 483.309v16.802a11.688 11.688 0 0 0-2.615 2.27v-16.8a11.6 11.6 0 0 1 2.615-2.272" fill="#DA933E" /><path d="M587.803 532.604c5.521 0 11.041 0.002 16.563 0.009 5.909 0 10.797 2.584 12.528 6.538 0.579 1.319 0.875 2.732 0.894 4.15a10.716 10.716 0 0 1-5.269 9.354c-2.236 1.345-5.493 1.955-8.283 1.974-8.777 0.036-17.557 0.062-26.331 0.072-8.125 0.014-16.247 0.017-24.37 0.017H552.27c-6.343 0-12.685-0.003-19.026-0.005-7.077-0.004-14.15-0.007-21.229-0.007-20.484 0-40.981 0.005-61.475 0.005-10.247 0-20.491 0-30.735-0.005-6.3 0-11.188-2.565-12.833-6.659a11.407 11.407 0 0 1-0.841-4.229c-0.003-3.602 1.817-7.038 5.477-9.229 2.238-1.336 5.516-1.894 8.326-1.9 13.477-0.031 26.95-0.053 40.426-0.063 13.274-0.012 26.553-0.015 39.829-0.015h0.597c17.968 0 35.932 0.007 53.898 0.007 5.173 0 10.352-0.002 15.525-0.004 5.86-0.008 11.729-0.01 17.594-0.01z" fill="#F3A24B" /><path d="M660.367 400.516h5.463v260.273H358.128V310.734h204.058v4.573c0 14.407 0.041 28.812 0.038 43.214a3802.9 3802.9 0 0 1-0.13 33.607c-0.007 7.227 1.604 8.414 8.688 8.449 7.412-0.037 13.939-0.06 20.474-0.074 6.396-0.012 12.793-0.019 19.188-0.019 8.776 0 16.583 0.008 24.391 0.016 8.511 0.009 17.02 0.016 25.532 0.016zM605.14 606.211c7.54-0.052 12.259-4.231 12.308-10.667 0.069-7.506-4.436-11.521-13.084-11.521-61.628-0.012-123.258-0.012-184.896-0.012l-0.893-0.001c-0.598 0-1.196 0.008-1.788 0.057-5.261 0.418-9.708 4.687-10.354 9.242-1.139 8.186 5.633 12.986 13.824 13.061 14.332-0.15 28.229-0.189 42.122-0.189 5.827 0 11.654 0.009 17.481 0.017 10.569 0.02 21.145 0.045 31.719 0.045 18.799-0.013 37.598-0.013 56.407-0.013 3.766 0 7.536 0.01 11.304 0.016 3.394 0.006 6.786 0.01 10.179 0.011h1.738c2.423 0 4.848-0.004 7.271-0.011 2.217-0.011 4.439-0.02 6.662-0.035m7.548-156.512c3.399-2.201 5.115-5.616 5.1-9.125a10.965 10.965 0 0 0-0.822-4.092c-1.662-4.104-6.643-6.747-12.811-6.747-30.744-0.01-61.487-0.01-92.231-0.01-5.005 0.006-10.012 0.007-15.018 0.007-13.617-0.001-27.238-0.009-40.854-0.009-12.418 0-24.833 0.006-37.248 0.02-7.711 0.008-12.308 4.232-12.315 11.033-0.013 6.781 4.638 11.174 12.188 11.184 12.216 0.006 24.438 0.011 36.65 0.013 11.554 0.004 23.097 0.005 34.648 0.005h1.291c18.63 0 37.265-0.005 55.896-0.019 19.398-0.017 38.804-0.041 58.204-0.081 2.464 0.003 5.337-0.887 7.322-2.179m-206.553 42.786c0.008 1.372 0.276 2.76 0.813 4.102 1.642 4.102 6.602 6.729 12.801 6.729h91.769l46.561 0.002c15.521 0 31.042-0.002 46.56-0.013 8.105 0 12.805-4.031 12.822-10.945 0.021-7.027-4.565-11.156-12.601-11.183-2.438-0.008-4.877-0.014-7.317-0.019-2.233-0.003-4.469-0.004-6.704-0.004h-1.781c-3.122 0.001-6.244 0.001-9.365 0.007-4.291 0.003-8.588 0.007-12.884 0.007l-30.274-0.005c-9.421-0.004-18.837-0.004-28.262-0.004l-0.674-0.001-0.572 0.001a59293 59293 0 0 0-42.175 0.014c-14.808 0.009-29.616 0.029-44.425 0.059-2.854 0.008-6.146 0.383-8.447 1.657-3.882 2.143-5.863 5.802-5.845 9.596m206.384 60.171a10.709 10.709 0 0 0 4.375-13.505c-1.731-3.954-6.619-6.537-12.528-6.537-5.521-0.009-11.04-0.013-16.563-0.013-5.862 0-11.729 0.004-17.594 0.008-5.177 0.001-10.354 0.005-15.526 0.005-17.966 0-35.935-0.009-53.899-0.009l-0.597 0.002c-13.276 0-26.551 0.002-39.828 0.014-13.476 0.012-26.951 0.029-40.426 0.062-2.813 0.012-6.091 0.566-8.326 1.902-3.658 2.19-5.479 5.63-5.478 9.229 0 1.408 0.282 2.842 0.839 4.231 1.646 4.095 6.532 6.661 12.833 6.661 10.244 0.003 20.493 0.004 30.737 0.004 20.493 0 40.987-0.004 61.476-0.004 7.077 0 14.152 0.001 21.229 0.006 6.344 0.001 12.687 0.004 19.025 0.004h1.267c8.122 0 16.246-0.003 24.368-0.017 8.775-0.015 17.555-0.033 26.331-0.072 2.789-0.016 6.046-0.626 8.285-1.971m-193.377-174.33c-8.063 0.026-12.658 4.112-12.649 11.121 0 6.938 4.605 11.033 12.729 11.052 6.805 0.013 13.604 0.022 20.405 0.027 6.52 0.007 13.039 0.008 19.559 0.008h1.612a19275.193 19275.193 0 0 0 32.698-0.027c8.184-0.018 12.578-4.007 12.567-11.131-0.01-7.088-4.465-11.025-12.64-11.052a5428.782 5428.782 0 0 0-13.941-0.019h-1.651c-3.061 0.002-6.117 0.002-9.172 0.005-3.978 0.001-7.95 0.005-11.925 0.005-3.762 0-7.52-0.003-11.276-0.004l-10.336-0.006H433.245l-5.074 0.003c-3.013 0.005-6.021 0.011-9.029 0.018" fill="#F6E6A7" /><path d="M511.921 429.728c30.742 0 61.486 0 92.23 0.01 6.169 0 11.147 2.644 12.811 6.747 0.544 1.332 0.814 2.718 0.821 4.092 0.02 3.507-1.696 6.921-5.098 9.125-1.984 1.292-4.855 2.184-7.326 2.184-19.401 0.037-38.807 0.063-58.203 0.078-18.636 0.014-37.268 0.021-55.896 0.021h-1.29c-11.553 0-23.096-0.001-34.648-0.008-12.216-0.002-24.438-0.007-36.652-0.012-7.548-0.008-12.195-4.399-12.188-11.184 0.012-6.8 4.607-11.025 12.317-11.035a44617.075 44617.075 0 0 1 59.251-0.007c6.283 0 12.567 0 18.853-0.002 5.006-0.004 10.011-0.007 15.018-0.009z" fill="#F3A24B" /><path d="M665.83 660.789v16.8H358.128v-16.8H665.83z" fill="#DA933E" /><path d="M665.83 660.789v16.8H358.128v-16.8H665.83" fill="#DA933E" /><path d="M688.732 381.784c2.193 1.895 3.031 3.815 3.031 6.468-0.068 96.226-0.06 192.451-0.068 288.676 0 5.267-1.271 6.391-7.248 6.391-57.495 0.004-114.992 0.008-172.49 0.008-57.496 0-114.993-0.004-172.49-0.008-5.966 0-7.234-1.117-7.234-6.398v-191.29-190.513c0-5.831 1.078-6.783 7.688-6.792l78.854 0.002c52.566 0 105.132-0.008 157.704-0.055 3.094 0 5.253 0.785 7.42 2.671a40950.412 40950.412 0 0 0 104.833 90.84zM665.83 660.787v-260.27h-5.463c-8.51 0-17.021-0.008-25.529-0.018-7.809-0.007-15.613-0.016-23.42-0.016-7.369 0-13.763 0.007-20.158 0.019-6.531 0.014-13.062 0.037-19.596 0.075-7.963-0.034-9.573-1.224-9.566-8.113 0.1-11.539 0.127-22.741 0.134-33.945 0.001-14.403-0.04-28.808-0.04-43.214v-4.573H358.13v350.053c102.724 0.002 205.178 0.002 307.7 0.002M588.145 328.01v49.942h57.549c-19.095-16.569-38.306-33.251-57.549-49.942" fill="#E5B15F" /><path d="M590.225 481.156h0.61a4994.237 4994.237 0 0 1 14.023 0.023c8.03 0.026 12.618 4.156 12.6 11.184-0.021 6.914-4.717 10.947-12.821 10.947-15.518 0.01-31.038 0.013-46.559 0.013l-46.562-0.002h-91.768c-6.199 0-11.159-2.628-12.802-6.731a11.211 11.211 0 0 1-0.813-4.1c-0.018-3.792 1.963-7.454 5.842-9.598 2.301-1.272 5.596-1.647 8.448-1.657 14.809-0.028 29.617-0.05 44.425-0.059 14.061-0.01 28.118-0.014 42.177-0.014l0.569-0.001 0.673 0.001c9.425 0 18.84 0 28.262 0.004 10.093 0 20.187 0.004 30.275 0.005 4.295 0 8.59-0.002 12.882-0.007a9752.448 9752.448 0 0 1 10.539-0.008z" fill="#F3A24B" /><path d="M418.573 584.011l0.893 0.001c61.641 0 123.271 0 184.897 0.011 8.648 0 13.153 4.015 13.085 11.521-0.051 6.434-4.77 10.614-12.31 10.666-2.222 0.014-4.443 0.025-6.666 0.03-2.423 0.007-4.848 0.01-7.271 0.011h-0.607l-1.131-0.001c-3.393-0.001-6.785-0.006-10.177-0.01-3.77-0.007-7.539-0.016-11.304-0.016-18.813 0-37.609 0-56.409 0.012-10.572 0-21.147-0.026-31.719-0.044-6.144-0.013-12.286-0.021-18.429-0.021-13.581 0-27.155 0.041-40.733 0.193-8.631-0.072-15.401-4.876-14.266-13.061 0.646-4.558 5.092-8.823 10.354-9.244a26.173 26.173 0 0 1 1.793-0.048z" fill="#F3A24B" /><path d="M691.695 676.929v16.802c0 5.265-1.271 6.389-7.248 6.389-57.495 0.004-114.992 0.009-172.49 0.009-57.496 0-114.993-0.005-172.49-0.009-5.966 0-7.234-1.117-7.234-6.398v-16.8c0 5.281 1.27 6.398 7.234 6.398 57.497 0.004 114.994 0.008 172.49 0.008 57.498 0 114.993-0.004 172.49-0.008 5.979-0.002 7.248-1.127 7.248-6.391z" fill="#DA933E" /><path d="M691.695 676.929v16.802c0 0.493-0.015 0.951-0.036 1.375v-16.802c0.025-0.422 0.036-0.88 0.036-1.375M691.659 678.306v16.802c-0.097 1.601-0.393 2.715-1.037 3.479v-16.8c0.647-0.766 0.941-1.884 1.037-3.481M690.622 681.785v16.8c-0.2 0.236-0.435 0.438-0.704 0.611v-16.803c0.27-0.169 0.504-0.372 0.704-0.608M689.918 682.396v16.803a4.496 4.496 0 0 1-0.799 0.39v-16.801c0.295-0.112 0.562-0.242 0.799-0.392M689.119 682.785v16.801a7.753 7.753 0 0 1-1.604 0.371v-16.8c0.619-0.085 1.147-0.205 1.604-0.372" fill="#DA933E" /><path d="M687.517 683.157v16.8c-0.851 0.116-1.861 0.162-3.065 0.162-57.496 0.004-114.993 0.008-172.49 0.008-57.496 0-114.993-0.004-172.49-0.008-5.966 0-7.235-1.117-7.235-6.398V676.92c0 5.282 1.271 6.398 7.235 6.398 57.497 0.005 114.994 0.009 172.49 0.009 57.497 0 114.993-0.004 172.49-0.009 1.201 0 2.214-0.045 3.065-0.161" fill="#DA933E" /></svg>