<?xml version="1.0" encoding="utf-8"?>
<!-- Uploaded to: SVG Repo, www.svgrepo.com, Generator: SVG Repo Mixer Tools -->
<svg width="800px" height="800px" viewBox="0 0 1024 1024" class="icon"  version="1.1" xmlns="http://www.w3.org/2000/svg"><path d="M993.763 493.538v35c0 13.331-6.04 26.664-18.135 37.137-140.15 121.422-280.35 242.795-420.49 364.219-11.814 10.237-25.813 15.501-42.454 15.501v-35c16.643 0 30.64-5.264 42.454-15.501 140.141-121.424 280.336-242.802 420.49-364.217 12.095-10.475 18.135-23.803 18.135-37.139z" fill="#EBBF73" /><path d="M30.239 528.367v-3.5-1.75-3.5-3.5-1.75-3.5-3.5-1.75-3.5-3.5-1.75-3.5c0 14.707 6.701 29.313 19.039 40.019 138.448 120.064 277.049 239.996 415.56 360.02 13.002 11.26 28.74 16.466 47.852 16.994v35c-19.108-0.528-34.85-5.734-47.852-16.994C326.325 808.382 187.725 688.45 49.277 568.386c-12.338-10.705-19.038-25.312-19.038-40.019z" fill="#EBBF73" /><path d="M510.786 76.601c16.263 0 32.546 5.362 44.946 16.097 139.95 121.188 279.901 242.376 419.819 363.586 24.241 20.995 24.295 53.413 0.079 74.397-140.15 121.42-280.35 242.796-420.489 364.217-11.815 10.239-25.813 15.502-42.452 15.502-19.109-0.528-34.852-5.734-47.854-16.994-138.511-120.024-277.111-239.956-415.56-360.02-19.581-16.988-24.96-43.81-11.895-65.251 3.919-6.438 8.669-11.829 14.465-16.849C189.954 331.734 328.024 212.152 466.107 92.567c12.296-10.639 28.478-15.966 44.679-15.966z" fill="#F6D365" /><path d="M640.07 276.122v-0.02-0.022-0.022-0.024-0.024-0.022-0.021-0.02-1.747-1.851-1.919-1.956-1.954-1.921-1.851-1.747h0.309v15.12l-0.309 0.001z" fill="#D9C5A3" /><path d="M640.379 261.003v15.12a9.908 9.908 0 0 0-1.057 0.032 7.881 7.881 0 0 0-0.38 0.044v-15.121c0.127-0.018 0.255-0.032 0.38-0.043 0.261-0.023 0.523-0.036 1.057-0.032" fill="#D9C5A3" /><path d="M640.636 276.135a7.368 7.368 0 0 0-0.257-0.013v-15.12c0.082 0.003 0.161 0.006 0.243 0.011 0.016 5.042 0.014 10.082 0.014 15.122z" fill="#D9C5A3" /><path d="M737.469 345.383v15.12c-0.006-2.562-1.77-5.139-5.321-8.228a28866.459 28866.459 0 0 0-82.656-71.565c-3.622-3.067-6.372-4.497-9.112-4.586v-15.12c2.74 0.088 5.49 1.518 9.112 4.586a29025.43 29025.43 0 0 1 82.656 71.565c3.551 3.087 5.315 5.666 5.321 8.228" fill="#D9C5A3" /><path d="M640.636 276.135c0-5.04 0.002-10.082-0.014-15.122 2.661 0.164 5.354 1.598 8.869 4.575v15.119c-3.51-2.971-6.2-4.406-8.855-4.572z" fill="#D9C5A3" /><path d="M737.469 345.383v15.12c-0.006-2.562-1.77-5.139-5.321-8.228a28866.459 28866.459 0 0 0-82.656-71.565c-3.622-3.067-6.372-4.497-9.112-4.586v-15.12c2.74 0.088 5.49 1.518 9.112 4.586a29025.43 29025.43 0 0 1 82.656 71.565c3.551 3.087 5.315 5.666 5.321 8.228" fill="#D9C5A3" /><path d="M639.322 276.155c-2.777 0.256-5.612 1.881-9.057 4.852v-1.773-1.879-1.947-1.979-1.977-1.941-1.866-1.758c3.444-2.972 6.278-4.596 9.057-4.852 0.203-0.02 0.41-0.031 0.748-0.033v15.121c-0.338 0-0.543 0.013-0.748 0.032z" fill="#D9C5A3" /><path d="M640.379 261.003v15.12a9.908 9.908 0 0 0-1.057 0.032 7.881 7.881 0 0 0-0.38 0.044v-15.121c0.127-0.018 0.255-0.032 0.38-0.043 0.261-0.023 0.523-0.036 1.057-0.032M638.942 261.079V276.2a9.804 9.804 0 0 0-2.07 0.526v-15.121a9.85 9.85 0 0 1 2.07-0.526M636.872 261.605v15.121c-0.958 0.35-1.938 0.855-2.961 1.511v-15.121c1.027-0.655 2.004-1.159 2.961-1.511M633.911 263.116v15.121c-1.153 0.737-2.364 1.666-3.66 2.787-16.402 14.182-32.758 28.403-49.181 42.56-0.657 0.567-1.389 1.074-2.13 1.547v-15.12c0.741-0.473 1.474-0.98 2.13-1.547 16.42-14.157 32.778-28.378 49.181-42.56 1.296-1.122 2.507-2.05 3.66-2.788" fill="#D9C5A3" /><path d="M649.898 281.061l-0.407-0.352v-1.773-1.877-1.948-1.979-1.978-1.939-1.866-1.758l0.407 0.351v15.119z" fill="#D9C5A3" /><path d="M737.469 345.383v15.12c-0.006-2.562-1.77-5.139-5.321-8.228a28866.459 28866.459 0 0 0-82.656-71.565c-3.622-3.067-6.372-4.497-9.112-4.586v-15.12c2.74 0.088 5.49 1.518 9.112 4.586a29025.43 29025.43 0 0 1 82.656 71.565c3.551 3.087 5.315 5.666 5.321 8.228" fill="#D9C5A3" /><path d="M603.01 304.616v-0.791-0.837-0.87-0.882-0.882-0.865-0.832-0.783-0.984-1.04-1.079-1.096-1.095-1.075-1.035-0.974c9.078-7.865 18.152-15.735 27.241-23.593 0.004-0.006 0.011-0.01 0.017-0.016v15.119c-0.006 0.006-0.013 0.01-0.017 0.016-9.089 7.859-18.163 15.728-27.241 23.594z" fill="#D9C5A3" /><path d="M633.911 263.116v15.121c-1.153 0.737-2.364 1.666-3.66 2.787-16.402 14.182-32.758 28.403-49.181 42.56-0.657 0.567-1.389 1.074-2.13 1.547v-15.12c0.741-0.473 1.474-0.98 2.13-1.547 16.42-14.157 32.778-28.378 49.181-42.56 1.296-1.122 2.507-2.05 3.66-2.788" fill="#D9C5A3" /><path d="M581.07 323.582c-1.523 1.313-3.428 2.295-4.987 3.324v-15.12c1.56-1.029 3.466-2.01 4.987-3.324 7.321-6.312 14.632-12.638 21.939-18.967V304.613a11242.32 11242.32 0 0 1-21.939 18.969z" fill="#D9C5A3" /><path d="M633.911 263.116v15.121c-1.153 0.737-2.364 1.666-3.66 2.787-16.402 14.182-32.758 28.403-49.181 42.56-0.657 0.567-1.389 1.074-2.13 1.547v-15.12c0.741-0.473 1.474-0.98 2.13-1.547 16.42-14.157 32.778-28.378 49.181-42.56 1.296-1.122 2.507-2.05 3.66-2.788" fill="#D9C5A3" /><path d="M578.94 310.01v15.12c-0.86 0.55-1.739 1.058-2.543 1.571v-15.12c0.804-0.514 1.683-1.022 2.543-1.571M576.397 311.58v15.12l-0.317 0.204v-15.12c0.106-0.067 0.211-0.136 0.317-0.204" fill="#D9C5A3" /><path d="M732.147 352.275a28899.898 28899.898 0 0 0-82.249-71.214v-1.773-1.876-1.943-1.978-1.976-1.939-1.871-1.765a28899.898 28899.898 0 0 1 82.249 71.214c3.552 3.088 5.315 5.666 5.321 8.229v15.12c-0.005-2.563-1.769-5.14-5.321-8.228z" fill="#D9C5A3" /><path d="M737.469 345.383v15.12c-0.006-2.562-1.77-5.139-5.321-8.228a28866.459 28866.459 0 0 0-82.656-71.565c-3.622-3.067-6.372-4.497-9.112-4.586v-15.12c2.74 0.088 5.49 1.518 9.112 4.586a29025.43 29025.43 0 0 1 82.656 71.565c3.551 3.087 5.315 5.666 5.321 8.228" fill="#D9C5A3" /><path d="M737.469 345.381v15.12c0.005 2.563-1.75 5.112-5.239 8.145-17.996 15.659-36.052 31.269-53.941 46.779v-15.121c17.89-15.509 35.945-31.121 53.941-46.779 3.489-3.031 5.244-5.58 5.239-8.144z" fill="#D9C5A3" /><path d="M737.469 345.381v15.12c0 0.116-0.003 0.232-0.01 0.349v-15.12c0.007-0.116 0.01-0.232 0.01-0.349M737.459 345.73v15.12c-0.098 1.607-0.886 3.218-2.36 4.955v-15.12c1.474-1.736 2.262-3.346 2.36-4.955" fill="#D9C5A3" /><path d="M735.099 350.686v15.12c-0.772 0.907-1.728 1.848-2.871 2.841-17.996 15.659-36.051 31.269-53.94 46.779v-15.121c17.89-15.509 35.944-31.121 53.94-46.78 1.143-0.991 2.1-1.932 2.871-2.839" fill="#D9C5A3" /><path d="M640.106 260.998c3.014 0.094 5.763 1.523 9.058 4.311a28382.534 28382.534 0 0 1 82.983 71.847c3.552 3.088 5.316 5.664 5.321 8.228s-1.75 5.113-5.239 8.145c-17.996 15.659-36.052 31.271-53.941 46.78-33.928-29.383-67.64-58.581-102.204-88.521 1.559-1.029 3.465-2.012 4.987-3.324 16.422-14.159 32.777-28.378 49.181-42.56 3.451-2.981 6.291-4.61 9.071-4.868 0.262-0.026 0.523-0.038 0.783-0.038z" fill="#F9EC9B" /><path d="M678.287 400.306v15.121c-33.929-29.384-67.641-58.579-102.204-88.521v-15.12c34.563 29.94 68.275 59.135 102.204 88.52z" fill="#D9C5A3" /><path d="M678.287 400.306v15.121c-33.929-29.384-67.641-58.579-102.204-88.521v-15.12c34.563 29.94 68.275 59.135 102.204 88.52" fill="#D9C5A3" /><path d="M651.569 422.39v15.12a818967.155 818967.155 0 0 0-100.146-86.735v-15.12c33.078 28.643 66.753 57.808 100.146 86.735z" fill="#D9C5A3" /><path d="M651.569 422.39v15.12a818967.155 818967.155 0 0 0-100.146-86.735v-15.12c33.078 28.643 66.753 57.808 100.146 86.735" fill="#D9C5A3" /><path d="M551.423 335.654v15.12c-79.86 69.155-160.066 138.599-239.637 207.5v-15.12c79.572-68.902 159.777-138.345 239.637-207.5z" fill="#D9C5A3" /><path d="M551.423 335.654v15.12c-79.86 69.155-160.066 138.599-239.637 207.5v-15.12c79.572-68.902 159.777-138.345 239.637-207.5" fill="#D9C5A3" /><path d="M411.942 629.897v15.119c-33.221-28.77-66.888-57.933-100.156-86.742v-15.12c33.268 28.809 66.935 57.974 100.156 86.743z" fill="#D9C5A3" /><path d="M411.942 629.897v15.119c-33.221-28.77-66.888-57.933-100.156-86.742v-15.12c33.268 28.809 66.935 57.974 100.156 86.743" fill="#D9C5A3" /><path d="M651.569 422.39v15.12a5061630.123 5061630.123 0 0 1-239.627 207.506v-15.12c79.735-69.042 159.867-138.432 239.627-207.506z" fill="#D9C5A3" /><path d="M651.569 422.39v15.12a5061630.123 5061630.123 0 0 1-239.627 207.506v-15.12c79.735-69.042 159.867-138.432 239.627-207.506" fill="#D9C5A3" /><path d="M370.183 656.087a732541.823 732541.823 0 0 1-71.459-61.909v-15.119c23.614 20.457 47.571 41.215 71.459 61.907v15.121z" fill="#D9C5A3" /><path d="M370.183 640.966v15.121c-23.888-20.69-47.845-41.449-71.459-61.909v-15.119c23.614 20.458 47.571 41.216 71.459 61.907" fill="#D9C5A3" /><path d="M298.724 579.059v15.119c-2.297 21.945-4.673 44.751-7.115 68.125v-15.121c2.442-23.372 4.818-46.18 7.115-68.123z" fill="#D9C5A3" /><path d="M298.724 579.059v15.119c-2.297 21.945-4.673 44.751-7.115 68.125v-15.121c2.442-23.372 4.818-46.18 7.115-68.123" fill="#D9C5A3" /><path d="M298.724 579.059l71.46 61.907c-25.04 1.981-51.393 4.063-78.574 6.217 2.443-23.373 4.82-46.183 7.114-68.124z" fill="#D9C5A3" /><path d="M370.185 640.966v15.121c-25.04 1.981-51.393 4.063-78.574 6.216v-15.12c27.181-2.154 53.534-4.236 78.574-6.217z" fill="#D9C5A3" /><path d="M370.185 640.966v15.121c-25.04 1.981-51.393 4.063-78.574 6.216v-15.12c27.181-2.154 53.534-4.236 78.574-6.217" fill="#D9C5A3" /><path d="M758.176 316.366c8.826 7.637 12.898 16.499 13.344 27.617 0.544 13.709-5.369 23.908-16.175 33.242-109.363 94.529-218.608 189.178-327.782 283.873-5.052 4.393-10.56 6.624-17.644 7.157-40.127 3.01-80.224 6.278-120.341 9.374-1.458 0.11-2.924 0.146-4.393 0.146-2.561 0-5.132-0.107-7.692-0.107-1.68 0.188-3.363 0.189-5.041 0.189l-2.517-0.001c-8.745 0-15.114-5.059-14.667-12.728 0.725-12.326 2.13-24.631 3.392-36.935 2.813-27.354 5.877-54.696 8.473-82.076 0.655-6.884 3.239-12.289 8.99-17.262 109.736-94.83 219.442-189.682 328.824-284.824 10.666-9.276 23.784-13.009 35.749-13.009 8.876 0 17.115 2.052 23.246 5.419 3.513 1.925 6.803 4.289 9.755 6.828 28.213 24.324 56.327 48.726 84.479 73.097zM411.942 629.898A5617654.36 5617654.36 0 0 0 651.57 422.389a916232.898 916232.898 0 0 0-100.146-86.736c-79.86 69.155-160.066 138.599-239.636 207.5 33.266 28.811 66.93 57.976 100.154 86.745m320.287-276.37c3.486-3.032 5.244-5.582 5.239-8.144-0.006-2.562-1.77-5.141-5.321-8.229a29186.163 29186.163 0 0 0-82.656-71.565c-3.622-3.067-6.372-4.497-9.112-4.586a9.643 9.643 0 0 0-1.057 0.032c-2.782 0.256-5.622 1.885-9.071 4.868-16.402 14.182-32.758 28.403-49.181 42.56-1.523 1.313-3.428 2.294-4.987 3.324 34.563 29.94 68.275 59.136 102.205 88.521 17.889-15.512 35.942-31.122 53.941-46.781m-440.62 293.655c27.183-2.152 53.535-4.235 78.574-6.217-23.888-20.69-47.845-41.449-71.459-61.907-2.297 21.943-4.673 44.751-7.115 68.124" fill="#EFD5AB" /><path d="M551.424 335.653c33.077 28.644 66.752 57.809 100.146 86.737a5714710.178 5714710.178 0 0 1-239.627 207.508c-33.221-28.77-66.888-57.935-100.156-86.743 79.572-68.904 159.776-138.349 239.637-207.502z" fill="#F5DB84" /><path d="M771.555 345.709v15.12c0 12.848-5.863 22.578-16.209 31.516-109.362 94.529-218.607 189.179-327.783 283.875-5.05 4.395-10.558 6.623-17.642 7.156-40.127 3.011-80.224 6.279-120.341 9.373a57.382 57.382 0 0 1-4.393 0.146c-2.561 0-5.133-0.108-7.692-0.108v-15.119c2.559 0 5.131 0.107 7.692 0.107 1.468 0 2.934-0.035 4.393-0.146 40.117-3.096 80.213-6.364 120.341-9.374 7.084-0.533 12.592-2.766 17.642-7.157 109.174-94.695 218.421-189.344 327.783-283.873 10.345-8.94 16.209-18.67 16.209-31.516z" fill="#D9C5A3" /><path d="M771.555 345.709v15.12c0 0.827-0.024 1.64-0.073 2.44v-15.12c0.048-0.801 0.073-1.616 0.073-2.44M771.481 348.147v15.12c-0.515 8.566-3.762 15.729-9.287 22.245v-15.121c5.526-6.513 8.773-13.677 9.287-22.244M762.194 370.392v15.121c-1.994 2.349-4.282 4.613-6.85 6.831-109.363 94.528-218.608 189.179-327.782 283.875a31.25 31.25 0 0 1-3.642 2.738v-15.121a31.222 31.222 0 0 0 3.642-2.738c109.173-94.695 218.419-189.345 327.782-283.874 2.568-2.218 4.856-4.482 6.85-6.832" fill="#D9C5A3" /><path d="M423.922 663.835v15.121a27.016 27.016 0 0 1-5.256 2.611v-15.121a26.987 26.987 0 0 0 5.256-2.611M418.666 666.446v15.121c-2.001 0.732-4.125 1.251-6.417 1.563v-15.119c2.291-0.314 4.416-0.83 6.417-1.565M412.247 668.011v15.119c-0.757 0.103-1.532 0.185-2.328 0.243-40.127 3.011-80.224 6.28-120.341 9.374a57.365 57.365 0 0 1-4.393 0.146c-2.561 0-5.132-0.108-7.692-0.108v-15.12c2.56 0 5.131 0.108 7.692 0.108a57.4 57.4 0 0 0 4.393-0.147c40.118-3.094 80.213-6.363 120.341-9.372a40.648 40.648 0 0 0 2.328-0.243" fill="#D9C5A3" /><path d="M255.245 681v-1.512-0.757-1.511-1.512-0.756-1.513-1.512-0.755-1.512-1.514-0.755-1.512c0 7.244 6.237 11.975 14.691 11.975 0.838 0.002 1.678 0.002 2.516 0.002 1.679 0 3.362-0.002 5.042-0.19v15.12c-1.68 0.191-3.363 0.192-5.042 0.192l-2.516-0.001c-8.454 0-14.691-4.731-14.691-11.977z" fill="#D9C5A3" /><path d="M277.495 677.667v15.119c-1.68 0.191-3.363 0.193-5.042 0.193-0.838 0-1.677 0-2.516-0.002-8.455 0-14.691-4.731-14.691-11.978v-15.12c0 7.245 6.237 11.976 14.691 11.976l2.516 0.001c1.678 0 3.361-0.001 5.042-0.189" fill="#D9C5A3" /></svg>