<?xml version="1.0" encoding="utf-8"?>
<!-- Uploaded to: SVG Repo, www.svgrepo.com, Generator: SVG Repo Mixer Tools -->
<svg width="800px" height="800px" viewBox="0 0 1024 1024" class="icon"  version="1.1" xmlns="http://www.w3.org/2000/svg"><path d="M993.763 493.538v35c0 13.331-6.04 26.664-18.135 37.137-140.149 121.422-280.35 242.795-420.49 364.219-11.813 10.237-25.813 15.501-42.454 15.501v-35c16.644 0 30.641-5.264 42.454-15.501C695.28 773.47 835.474 652.092 975.628 530.677c12.095-10.475 18.135-23.803 18.135-37.139z" fill="#59B09F" /><path d="M30.239 528.367v-3.5-1.75-3.5-3.5-1.75-3.5-3.5-1.75-3.5-3.5-1.75-3.5c0 14.707 6.701 29.313 19.037 40.019 138.449 120.064 277.049 239.996 415.562 360.02 13.002 11.26 28.74 16.466 47.853 16.994v35c-19.108-0.528-34.851-5.734-47.853-16.994C326.325 808.382 187.725 688.45 49.276 568.386c-12.337-10.705-19.037-25.312-19.037-40.019z" fill="#59B09F" /><path d="M510.786 76.601c16.263 0 32.546 5.362 44.946 16.097 139.949 121.188 279.9 242.376 419.818 363.586 24.241 20.995 24.295 53.413 0.079 74.396C835.48 652.101 695.28 773.478 555.141 894.898c-11.814 10.238-25.813 15.502-42.451 15.502-19.109-0.528-34.853-5.734-47.854-16.994C326.324 773.382 187.724 653.45 49.275 533.386c-19.581-16.987-24.96-43.81-11.895-65.251 3.919-6.438 8.669-11.829 14.465-16.849C189.954 331.734 328.024 212.152 466.107 92.567c12.296-10.64 28.478-15.966 44.679-15.966z" fill="#94D0C1" /><path d="M611.508 401.998v16.8c0 3.565-0.023 7.13-0.087 10.691-0.19 10.213-5.241 18.086-15.463 23.42-1.391 0.726-2.712 2.07-3.267 3.386-6.279 14.632-14.656 28.241-25.581 40.689-0.979 1.106-1.394 2.818-1.433 4.26-0.04 1.492-0.055 2.985-0.055 4.48v-16.8c0-1.496 0.015-2.99 0.055-4.481 0.039-1.441 0.454-3.152 1.433-4.261 10.926-12.449 19.302-26.058 25.581-40.688 0.555-1.317 1.876-2.662 3.267-3.387 10.222-5.333 15.271-13.207 15.463-23.42 0.063-3.559 0.087-7.123 0.087-10.689z" fill="#529385" /><path d="M611.508 401.998v16.8c0 3.565-0.023 7.13-0.087 10.691-0.009 0.432-0.024 0.856-0.051 1.281v-16.799c0.026-0.425 0.042-0.851 0.051-1.283 0.063-3.56 0.087-7.124 0.087-10.69M611.37 413.972v16.8c-0.338 5.644-2.229 10.541-5.719 14.661v-16.8c3.494-4.117 5.381-9.016 5.719-14.661" fill="#529385" /><path d="M605.652 428.634v16.8c-1.805 2.127-4.039 4.048-6.707 5.753v-16.8c2.668-1.706 4.903-3.626 6.707-5.753M598.945 434.387v16.8a39.534 39.534 0 0 1-2.986 1.724c-0.175 0.091-0.35 0.191-0.521 0.302v-16.8c0.172-0.109 0.347-0.209 0.521-0.302a39.48 39.48 0 0 0 2.986-1.724M595.438 436.412v16.8a8.085 8.085 0 0 0-1.772 1.552v-16.8a8.039 8.039 0 0 1 1.772-1.552M593.665 437.965v16.8c-0.414 0.488-0.754 1.014-0.973 1.533-5.956 13.881-13.801 26.841-23.921 38.764v-16.8c10.12-11.923 17.965-24.883 23.921-38.764 0.219-0.521 0.559-1.045 0.973-1.533M568.771 478.26v16.8a174.637 174.637 0 0 1-1.716 1.989v-16.8a140.175 140.175 0 0 0 1.716-1.989" fill="#529385" /><path d="M567.057 480.248v16.8c-0.879 1.038-1.283 2.569-1.366 3.918v-16.8c0.08-1.349 0.487-2.88 1.366-3.918M565.69 484.166v16.8c-0.006 0.094-0.01 0.188-0.013 0.28-0.04 1.491-0.055 2.986-0.055 4.48v-16.8c0-1.496 0.015-2.99 0.055-4.481l0.013-0.279" fill="#529385" /><path d="M476.098 492.835v16.8c0-5.618-0.023-11.231-0.09-16.849-0.009-1.432-0.495-3.133-1.461-4.25-12.489-14.291-21.47-29.986-26.571-47.411-0.734-2.488-3.325-4.87-5.725-6.617-3.215-2.323-4.384-5.168-4.475-8.459-0.086-3.492-0.255-6.997-0.253-10.489v-16.8c0 3.492 0.168 6.997 0.253 10.489 0.09 3.289 1.259 6.136 4.475 8.458 2.398 1.748 4.989 4.129 5.725 6.617 5.102 17.425 14.082 33.12 26.571 47.412 0.967 1.116 1.452 2.818 1.461 4.25 0.066 5.617 0.09 11.233 0.09 16.849z" fill="#529385" /><path d="M476.098 492.835v16.8c0-5.618-0.023-11.231-0.09-16.849-0.009-1.432-0.495-3.133-1.461-4.25-12.489-14.291-21.47-29.986-26.571-47.411-0.734-2.488-3.325-4.87-5.725-6.617-3.215-2.323-4.384-5.168-4.475-8.459-0.086-3.492-0.255-6.997-0.253-10.489v-16.8c0 3.492 0.168 6.997 0.253 10.489 0.09 3.289 1.259 6.136 4.475 8.458 2.398 1.748 4.989 4.129 5.725 6.617 5.102 17.425 14.082 33.12 26.571 47.412 0.967 1.116 1.452 2.818 1.461 4.25 0.066 5.617 0.09 11.233 0.09 16.849" fill="#529385" /><path d="M586.316 391.248v16.8c-0.154 7.107-0.316 13.813-0.567 20.524-0.103 2.952-2.116 4.653-5.263 5.544-5.33 1.519-8.568 4.722-10.32 9.333-6.25 16.332-15.363 31.338-27.952 44.729-0.938 1.005-1.664 2.486-1.685 3.764-0.063 6.25-0.134 12.508-0.138 18.762v-16.8c0.004-6.255 0.075-12.514 0.138-18.763 0.021-1.274 0.746-2.759 1.685-3.762 12.589-13.392 21.702-28.397 27.952-44.729 1.752-4.61 4.99-7.813 10.32-9.333 3.146-0.89 5.163-2.592 5.263-5.544 0.251-6.714 0.413-13.419 0.567-20.525z" fill="#529385" /><path d="M586.316 391.248v16.8c-0.154 7.107-0.316 13.813-0.567 20.524-0.002 0.059-0.006 0.115-0.009 0.175v-16.8c0.003-0.058 0.007-0.116 0.009-0.175 0.251-6.713 0.413-13.418 0.567-20.524M585.74 411.946v16.8c-0.073 1.223-0.485 2.226-1.178 3.041v-16.8c0.693-0.816 1.105-1.819 1.178-3.041" fill="#529385" /><path d="M584.563 414.986v16.8a5.929 5.929 0 0 1-1.353 1.162v-16.8a5.922 5.922 0 0 0 1.353-1.162" fill="#529385" /><path d="M583.211 416.148v16.8a9.03 9.03 0 0 1-1.775 0.86v-16.8a9.03 9.03 0 0 0 1.775-0.86" fill="#529385" /><path d="M581.438 417.008v16.8c-0.305 0.112-0.619 0.213-0.95 0.307-0.481 0.137-0.947 0.289-1.396 0.454v-16.8c0.448-0.166 0.914-0.317 1.396-0.454 0.328-0.093 0.645-0.194 0.95-0.307M579.091 417.769v16.8a16.092 16.092 0 0 0-3.146 1.543v-16.8a16.205 16.205 0 0 1 3.146-1.543M575.943 419.312v16.8a13.774 13.774 0 0 0-3.109 2.712v-16.8a13.774 13.774 0 0 1 3.109-2.712M572.834 422.023v16.8c-1.125 1.328-2.004 2.875-2.668 4.624-5.451 14.242-13.079 27.478-23.29 39.51v-16.8c10.211-12.034 17.839-25.27 23.29-39.512 0.664-1.747 1.543-3.293 2.668-4.622M546.876 466.159v16.8a138.28 138.28 0 0 1-4.662 5.22c-0.065 0.07-0.132 0.143-0.194 0.217v-16.8c0.063-0.077 0.129-0.146 0.194-0.217a139.064 139.064 0 0 0 4.662-5.22M542.02 471.596v16.8c-0.803 0.948-1.414 2.235-1.484 3.379v-16.801c0.069-1.144 0.681-2.432 1.484-3.378M540.536 474.975v16.801l-0.007 0.166c-0.063 6.251-0.133 12.508-0.138 18.762v-16.8c0.005-6.255 0.075-12.514 0.138-18.763l0.007-0.166" fill="#529385" /><path d="M451.245 496.856v16.8c0-10.441-3.279-19.548-10.124-28.734-6.985-9.394-10.745-20.594-15.977-30.974-0.867-1.729-1.613-3.709-3.095-4.966-6.339-5.396-9.242-11.987-9.414-19.492a541.449 541.449 0 0 1-0.126-12.021v-16.8c0 4.007 0.036 8.016 0.126 12.021 0.172 7.506 3.073 14.097 9.414 19.492 1.481 1.257 2.229 3.237 3.095 4.966 5.231 10.38 8.991 21.579 15.977 30.974 6.845 9.188 10.124 18.293 10.124 28.734z" fill="#529385" /><path d="M451.245 496.856v16.8c0-10.441-3.279-19.548-10.124-28.734-6.985-9.394-10.745-20.594-15.977-30.974-0.867-1.729-1.613-3.709-3.095-4.966-6.339-5.396-9.242-11.987-9.414-19.492a541.449 541.449 0 0 1-0.126-12.021v-16.8c0 4.007 0.036 8.016 0.126 12.021 0.172 7.506 3.073 14.097 9.414 19.492 1.481 1.257 2.229 3.237 3.095 4.966 5.231 10.38 8.991 21.579 15.977 30.974 6.845 9.188 10.124 18.293 10.124 28.734" fill="#529385" /><path d="M449.316 557.079a1322.671 1322.671 0 0 1-27.151 13.241c-0.037-2.605-0.148-3.966-0.659-8.093-0.52-4.17-0.624-5.451-0.663-8.081a1342.072 1342.072 0 0 0 28.474-13.865c7.066-3.553 13.256-8.736 18.938-13.924 5.857-5.324 7.762-12.396 7.803-19.721 0.022-4.469 0.037-8.942 0.04-13.412v16.801c-0.003 4.469-0.018 8.942-0.04 13.413-0.04 7.324-1.945 14.396-7.803 19.72-5.684 5.185-11.875 10.369-18.939 13.921z" fill="#529385" /><path d="M476.098 493.224v16.801c-0.003 4.469-0.018 8.942-0.04 13.411-0.004 0.735-0.026 1.47-0.069 2.196v-16.8c0.042-0.729 0.064-1.46 0.069-2.196 0.022-4.471 0.037-8.943 0.04-13.412M475.987 508.832v16.8c-0.335 5.594-1.903 10.946-5.659 15.379v-16.8c3.756-4.433 5.324-9.785 5.659-15.379M470.328 524.214v16.8a23.414 23.414 0 0 1-2.073 2.144c-4.293 3.917-8.875 7.835-13.903 11.047v-16.8c5.028-3.212 9.61-7.13 13.903-11.047a23.152 23.152 0 0 0 2.073-2.144" fill="#529385" /><path d="M454.354 537.401v16.8a56.6 56.6 0 0 1-5.037 2.878c-20.745 10.432-41.922 20.253-63.172 29.934a50.055 50.055 0 0 0-6.185 3.347v-16.801a50.174 50.174 0 0 1 6.185-3.346c21.25-9.682 42.427-19.502 63.172-29.934a56.635 56.635 0 0 0 5.037-2.878" fill="#529385" /><path d="M540.55 525.295a585.275 585.275 0 0 1-0.157-14.274v-16.8c0 4.762 0.042 9.521 0.157 14.275 0.395 15.729 11.652 25.378 26.219 32.222 18.587 8.736 37.78 16.535 56.712 24.739 4.666 2.017 9.272 4.139 14 6.059 16.562 6.723 23.194 18.971 24.948 33.818 0.167 1.396 0.209 2.803 0.209 4.214v16.8c0-1.411-0.042-2.816-0.209-4.214-1.754-14.849-8.388-27.096-24.948-33.817-4.728-1.918-9.335-4.042-14-6.06-18.93-8.204-38.122-16.003-56.712-24.739-14.567-6.845-25.826-16.492-26.219-32.223z" fill="#529385" /><path d="M662.638 609.545v16.801c0-1.409-0.042-2.815-0.209-4.213-1.754-14.849-8.388-27.096-24.947-33.817-4.729-1.918-9.335-4.042-14.001-6.06-18.93-8.204-38.122-16.003-56.711-24.737-14.565-6.846-25.824-16.49-26.22-32.224-0.116-4.756-0.157-9.52-0.157-14.281v-16.8c0 4.762 0.043 9.525 0.157 14.282 0.395 15.729 11.652 25.378 26.22 32.224 18.587 8.734 37.779 16.533 56.711 24.737 4.666 2.017 9.272 4.14 14.001 6.059 16.561 6.723 23.193 18.971 24.947 33.818 0.166 1.395 0.209 2.802 0.209 4.211" fill="#529385" /><path d="M363.928 610.155c-3.084 8.076-2.229 16.342-2.65 24.572v-16.8c0.422-8.23-0.435-16.498 2.65-24.572 3.94-10.294 10.946-18.001 22.217-23.144 11.606-5.288 23.193-10.618 34.698-16.066 0.038 2.631 0.145 3.912 0.663 8.08 0.511 4.127 0.622 5.487 0.659 8.094a2152.92 2152.92 0 0 1-22.853 10.665c0.13-1.479 0.254-2.869 0.809-6.555 0.576-3.819 1.281-7.614 1.903-11.429-0.622 3.813-1.328 7.61-1.903 11.429-0.555 3.684-0.679 5.076-0.809 6.555a4223.113 4223.113 0 0 1-13.168 6.026c-11.27 5.144-18.276 12.853-22.216 23.145z" fill="#529385" /><path d="M454.354 537.401v16.8a56.6 56.6 0 0 1-5.037 2.878c-20.745 10.432-41.922 20.253-63.172 29.934a50.055 50.055 0 0 0-6.185 3.347v-16.801a50.174 50.174 0 0 1 6.185-3.346c21.25-9.682 42.427-19.502 63.172-29.934a56.635 56.635 0 0 0 5.037-2.878M379.96 573.559v16.801c-3.552 2.271-6.559 4.891-9.074 7.858v-16.8c2.515-2.97 5.522-5.589 9.074-7.859" fill="#529385" /><path d="M370.886 581.418v16.8c-2.961 3.495-5.249 7.473-6.958 11.938-1.497 3.918-2.065 7.882-2.304 11.864v-16.8c0.238-3.981 0.807-7.945 2.304-11.863 1.709-4.467 3.995-8.444 6.958-11.939" fill="#529385" /><path d="M361.625 605.22v16.801c-0.251 4.228-0.13 8.473-0.347 12.709v-16.801c0.217-4.237 0.095-8.484 0.347-12.709" fill="#529385" /><path d="M687.944 623.644v16.801c0 7.873-4.458 13.678-12.272 17.237-9.174 4.18-18.729 8.014-28.587 10.709-20.837 5.709-42.488 8.129-64.182 10.013-23.202 2.011-46.444 3.264-69.73 3.264a621.82 621.82 0 0 1-18.368-0.27c-36.277-1.073-72.435-3.28-107.905-10.581-13.083-2.688-25.865-6.126-37.446-12.334-8.26-4.437-13.397-10.106-13.397-18.655v-16.801c0 8.55 5.138 14.221 13.397 18.654 11.582 6.209 24.363 9.647 37.446 12.335 35.472 7.302 71.628 9.509 107.905 10.582 6.126 0.182 12.249 0.27 18.368 0.27 23.286 0 46.527-1.254 69.73-3.265 21.692-1.884 43.345-4.303 64.182-10.012 9.858-2.698 19.413-6.53 28.587-10.71 7.814-3.56 12.272-9.365 12.272-17.237z" fill="#529385" /><path d="M687.944 623.644v16.801c0 0.413-0.013 0.818-0.035 1.219v-16.8c0.024-0.401 0.035-0.807 0.035-1.22M687.908 624.862v16.8c-0.238 3.894-1.611 7.251-3.98 10.046v-16.8c2.369-2.795 3.742-6.152 3.98-10.046" fill="#529385" /><path d="M683.93 634.908v16.8c-1.291 1.525-2.877 2.884-4.735 4.068v-16.801c1.858-1.185 3.444-2.541 4.735-4.067M679.193 638.977v16.801a28.212 28.212 0 0 1-3.521 1.901c-5.257 2.396-10.642 4.68-16.133 6.696v-16.8c5.493-2.02 10.877-4.3 16.133-6.696a28.085 28.085 0 0 0 3.521-1.902M659.539 647.576v16.8c-4.091 1.504-8.246 2.863-12.454 4.015-11.368 3.115-22.981 5.25-34.71 6.854v-16.8c11.729-1.604 23.342-3.742 34.71-6.854 4.208-1.152 8.363-2.511 12.454-4.015M612.375 658.445v16.8c-9.768 1.333-19.615 2.303-29.47 3.157-23.204 2.011-46.446 3.264-69.732 3.264-6.121 0-12.242-0.089-18.368-0.269-36.277-1.074-72.435-3.281-107.905-10.582-13.083-2.688-25.865-6.126-37.446-12.334-8.26-4.437-13.397-10.106-13.397-18.657v-16.8c0 8.551 5.138 14.222 13.397 18.655 11.582 6.209 24.363 9.647 37.446 12.335 35.472 7.302 71.628 9.509 107.905 10.582 6.126 0.182 12.249 0.27 18.368 0.27 23.286 0 46.527-1.254 69.732-3.264 9.858-0.854 19.704-1.824 29.47-3.157" fill="#529385" /><path d="M687.889 622.101c0.614 8.661-3.899 14.988-12.217 18.778-9.173 4.181-18.729 8.014-28.587 10.71-20.836 5.71-42.488 8.13-64.18 10.012-23.204 2.013-46.446 3.265-69.732 3.265-6.121 0-12.242-0.089-18.368-0.269-36.277-1.074-72.435-3.28-107.905-10.582-13.083-2.688-25.865-6.127-37.446-12.335-8.78-4.714-14.031-10.823-13.335-20.306 0.636-8.634-0.422-17.423 0.928-25.943 3.255-20.479 16.32-35.372 37.174-45.229 20.947-9.907 41.813-19.938 62.899-29.603 9.667-4.435 13.396-10.982 14.012-20.296 0.786-11.916-2.42-21.999-10.01-32.186-6.985-9.394-10.745-20.593-15.977-30.975-0.867-1.728-1.613-3.709-3.095-4.966-6.34-5.395-9.242-11.987-9.415-19.492-0.192-8.661-0.142-17.33 0-25.989 0.089-5.552 2.116-10.606 5.735-15.26 1.149-1.484 1.834-3.535 1.854-5.333 0.172-13.828-0.734-27.709 0.321-41.483 1.916-24.993 20.453-44.442 48.394-51.583 8.81-2.251 18.054-3.221 27.105-4.792 1.147-0.201 2.278-0.481 3.426-0.716h25.089c5.716 0.786 11.472 1.441 17.156 2.4 16.42 2.759 31.431 8.109 43.373 18.664 13.003 11.498 18.779 25.544 18.87 41.44 0.063 12.282-0.201 24.564-0.16 36.847 0 1.432 0.636 3.082 1.593 4.252 4.044 4.923 5.998 10.362 6.037 16.341 0.063 8.406 0.144 16.814-0.009 25.212-0.19 10.213-5.241 18.086-15.463 23.42-1.39 0.726-2.712 2.069-3.267 3.386-6.279 14.632-14.656 28.241-25.581 40.688-0.979 1.107-1.394 2.819-1.433 4.261-0.16 5.812 0.112 11.643-0.11 17.459-0.354 9.062 4.336 15.161 13.608 19.135 22.851 9.785 45.603 19.756 68.436 29.583 14.625 6.295 26.017 15.374 33.242 28.207 4.87 8.65 6.996 17.791 6.975 27.367-0.016 5.306-0.309 10.631 0.063 15.911z m-29.676 2.13c3.023-0.809 4.568-2.459 4.58-5.225-0.18-2.217-0.212-3.55-0.21-4.884 0.005-1.467 0.051-2.938 0.055-4.406 0.005-1.467-0.034-2.932-0.209-4.384-1.754-14.849-8.388-27.096-24.947-33.818-4.729-1.918-9.335-4.041-14.001-6.058-18.93-8.205-38.122-16.003-56.711-24.738-14.565-6.846-25.824-16.49-26.22-32.223-0.119-4.86-0.157-9.726-0.157-14.592 0.005-6.255 0.076-12.513 0.139-18.765 0.021-1.271 0.747-2.757 1.685-3.762 12.589-13.39 21.701-28.396 27.951-44.729 1.754-4.609 4.99-7.813 10.322-9.333 3.146-0.89 5.161-2.592 5.262-5.542 0.253-6.713 0.413-13.417 0.564-20.13-0.019-4.439-1.88-7.771-5.122-10.798-1.43-1.336-2.486-3.527-2.52-5.334-0.033-2.716-0.048-5.43-0.048-8.146-0.002-6.791 0.071-13.581 0.076-20.369 0.004-4.979-0.03-9.957-0.158-14.931-0.424-16.367-8.144-30.37-28.729-36.77a132.583 132.583 0 0 0-4.594-1.342c-11.468-3.063-22.188-4.491-32.918-4.517-10.614 0.015-20.761 1.281-30.923 3.777-0.924 0.227-1.85 0.465-2.771 0.713-0.407 0.107-0.813 0.218-1.218 0.33-22.188 6.154-31.742 19.154-31.895 39.117-0.045 6.054-0.067 12.106-0.067 18.16 0 7.784 0.038 15.566 0.116 23.349 0.021 2.646-1.139 4.418-2.893 6.521-2.248 2.688-4.323 6.033-4.707 9.244-0.321 2.688-0.424 5.398-0.424 8.113-0.001 3.493 0.167 6.999 0.253 10.489 0.089 3.291 1.258 6.136 4.475 8.458 2.398 1.746 4.989 4.13 5.726 6.617 5.102 17.425 14.082 33.12 26.57 47.41 0.968 1.117 1.452 2.818 1.46 4.25 0.068 5.745 0.09 11.491 0.09 17.236-0.003 4.471-0.018 8.943-0.04 13.412-0.04 7.326-1.946 14.397-7.803 19.721-5.685 5.188-11.873 10.372-18.938 13.924-20.745 10.432-41.923 20.252-63.173 29.933-11.269 5.144-18.273 12.852-22.215 23.144-3.084 8.075-2.229 16.342-2.65 24.573 0.007 3.668 1.411 5.482 4.748 6.408 11.33 3.151 22.479 7.011 34.048 9.243 36.723 7.097 74.099 9.011 107.495 9.508 36.468-0.142 79.099-2.355 111.787-8.729 13.167-2.565 25.936-6.641 38.859-10.125" fill="#77C0B2" /><path d="M511.826 289.435c11.206 0.024 21.926 1.454 32.627 4.309 2.298 0.626 3.828 1.072 5.359 1.55 20.584 6.399 28.304 20.401 28.729 36.77 0.129 4.975 0.163 9.953 0.158 14.931-0.004 6.79-0.077 13.58-0.076 20.368 0.001 2.716 0.014 5.433 0.048 8.147 0.031 1.807 1.088 3.998 2.521 5.334 3.24 3.026 5.104 6.359 5.122 10.404-0.154 7.106-0.315 13.811-0.567 20.524-0.1 2.952-2.116 4.654-5.262 5.544-5.331 1.519-8.568 4.723-10.321 9.333-6.249 16.333-15.363 31.339-27.952 44.729-0.938 1.003-1.662 2.487-1.685 3.762-0.063 6.251-0.133 12.51-0.138 18.763-0.001 4.866 0.037 9.73 0.156 14.593 0.394 15.73 11.652 25.377 26.22 32.222 18.587 8.736 37.779 16.534 56.71 24.739 4.667 2.017 9.274 4.138 14.001 6.058 16.563 6.724 23.194 18.971 24.948 33.817 0.174 1.452 0.214 2.916 0.21 4.383-0.003 1.47-0.05 2.942-0.054 4.408-0.004 1.334 0.03 2.667 0.164 3.991 0.031 3.658-1.511 5.31-4.533 6.118-12.923 3.48-25.695 7.559-38.86 10.125-32.688 6.374-75.315 8.59-111.785 8.729-33.396-0.496-70.771-2.41-107.494-9.508-11.572-2.233-22.721-6.093-34.051-9.243-3.337-0.926-4.74-2.74-4.762-5.783 0.437-8.855-0.42-17.124 2.665-25.197 3.94-10.295 10.946-18.002 22.217-23.144 21.249-9.682 42.428-19.502 63.173-29.934 7.064-3.553 13.255-8.737 18.938-13.923 5.857-5.325 7.762-12.396 7.803-19.722 0.022-4.471 0.038-8.942 0.04-13.412 0.001-5.745-0.022-11.493-0.09-17.236-0.009-1.433-0.493-3.135-1.461-4.25-12.489-14.292-21.47-29.987-26.57-47.412-0.736-2.488-3.328-4.87-5.726-6.617-3.216-2.323-4.385-5.168-4.476-8.458-0.086-3.492-0.254-6.998-0.253-10.489 0-2.716 0.104-5.425 0.426-8.114 0.383-3.211 2.459-6.556 4.706-9.244 1.754-2.105 2.912-3.877 2.893-6.521-0.079-7.783-0.117-15.566-0.117-23.35 0-6.053 0.023-12.106 0.067-18.16 0.149-19.964 9.707-32.962 31.894-39.116a135.775 135.775 0 0 1 3.99-1.043c10.162-2.495 20.312-3.76 30.448-3.775z" fill="#BADFD3" /></svg>